<svg width="250" height="343" viewBox="0 0 250 343" fill="none" xmlns="http://www.w3.org/2000/svg">
<path fill-rule="evenodd" clip-rule="evenodd" d="M244.632 28.4118H162.944C160.558 20.218 155.569 13.0168 148.725 7.89315C141.881 2.76945 133.553 0 124.994 0C116.435 0 108.108 2.76945 101.264 7.89315C94.4201 13.0168 89.4304 20.218 87.0448 28.4118H5.3402C4.63661 28.4118 3.93976 28.5507 3.29007 28.8199C2.64039 29.0891 2.05061 29.4836 1.55439 29.9808C1.05816 30.478 0.66534 31.0677 0.398614 31.7167C0.131887 32.3657 -0.00357388 33.061 7.16712e-05 33.7624V337.649C-0.00357388 338.351 0.131887 339.045 0.398614 339.694C0.66534 340.343 1.05816 340.934 1.55439 341.431C2.05061 341.928 2.64039 342.323 3.29007 342.592C3.93976 342.861 4.63661 343 5.3402 343H244.632C245.338 343.004 246.038 342.868 246.691 342.6C247.344 342.332 247.937 341.938 248.436 341.44C248.935 340.943 249.33 340.351 249.599 339.7C249.867 339.05 250.004 338.353 250 337.649V33.7624C250.004 33.0587 249.867 32.3608 249.599 31.71C249.33 31.0591 248.935 30.4676 248.436 29.97C247.937 29.4724 247.344 29.0794 246.691 28.8118C246.038 28.5442 245.338 28.4082 244.632 28.4118V28.4118ZM73.3599 56.4884V39.0577H91.7151C91.7477 39.0616 91.7806 39.0591 91.8121 39.0496C91.8435 39.0401 91.8725 39.0237 91.8975 39.0025H92.2407C92.2656 38.9812 92.2947 38.9648 92.3261 38.9554C92.3575 38.9459 92.3908 38.9434 92.4234 38.9473C92.5341 38.8921 92.6391 38.892 92.7442 38.8368C92.8136 38.8445 92.883 38.8246 92.9378 38.7816C93.0415 38.7696 93.1405 38.7315 93.2255 38.6712C93.2966 38.6792 93.368 38.6593 93.4248 38.616C93.5189 38.5608 93.6021 38.5607 93.6906 38.5055C93.7792 38.4504 93.8235 38.4516 93.8899 38.3965L94.1388 38.2308C94.1997 38.1757 94.2603 38.1755 94.3212 38.1204L94.5647 37.9547L94.7255 37.7891L94.9632 37.6234L95.1017 37.4578C95.1792 37.4026 95.2456 37.2921 95.3175 37.2369L95.4391 37.0713C95.5055 37.0161 95.5718 36.9069 95.6327 36.8518L95.7492 36.6861C95.8045 36.5758 95.8541 36.5204 95.9039 36.41C95.954 36.3439 95.9916 36.2689 96.0147 36.1892C96.0648 36.1222 96.104 36.0475 96.1308 35.9683C96.1696 35.9132 96.2084 35.8026 96.2416 35.7475C96.2611 35.6718 96.2868 35.5991 96.319 35.5279C96.3522 35.4176 96.3855 35.307 96.4132 35.1966C96.4409 35.0863 96.4516 35.0862 96.4683 35.031C96.4849 34.9758 96.5181 34.81 96.5402 34.6997C96.5623 34.5894 96.5402 34.6445 96.5402 34.6445C97.6664 27.9383 101.142 21.8481 106.348 17.4549C111.554 13.0617 118.154 10.6499 124.975 10.6499C131.796 10.6499 138.396 13.0617 143.602 17.4549C148.808 21.8481 152.284 27.9383 153.41 34.6445C153.41 34.6445 153.41 34.6997 153.41 34.6997C153.41 34.81 153.443 34.8655 153.465 34.9758C153.487 35.0861 153.504 35.1415 153.526 35.1966C153.54 35.2737 153.566 35.3484 153.603 35.4175C153.603 35.5278 153.659 35.5819 153.692 35.6922C153.729 35.7627 153.759 35.8368 153.781 35.9131C153.819 35.9683 153.858 36.0788 153.902 36.134C153.947 36.1891 153.963 36.2997 153.996 36.3548C154.064 36.439 154.12 36.532 154.162 36.6309C154.207 36.6541 154.241 36.6938 154.257 36.7413C154.313 36.8445 154.386 36.938 154.472 37.0174C154.484 37.0625 154.511 37.1006 154.55 37.1265C154.643 37.2691 154.755 37.3993 154.882 37.513V37.513L155.241 37.8443C155.303 37.8619 155.356 37.9012 155.391 37.9547L155.629 38.1204C155.679 38.1783 155.747 38.2174 155.822 38.2308L156.038 38.3965C156.12 38.4103 156.195 38.4476 156.254 38.5055C156.337 38.5194 156.415 38.5579 156.476 38.616C156.547 38.616 156.625 38.6712 156.697 38.6712C156.769 38.6712 156.863 38.7265 156.946 38.7816C157.029 38.8368 157.084 38.8368 157.156 38.8368C157.228 38.8368 157.35 38.8921 157.449 38.9473H157.637C157.757 38.9928 157.886 39.0117 158.014 39.0025C158.052 39.0025 158.091 39.0577 158.13 39.0577H176.585V70.9966H73.3599V56.4884V56.4884ZM68.0144 81.6425H182.008C183.416 81.6425 184.768 81.0842 185.764 80.0911C186.76 79.0979 187.32 77.7516 187.32 76.3472V61.785H216.538V258.492H167.742C166.329 258.489 164.974 259.045 163.973 260.038C162.971 261.031 162.406 262.379 162.402 263.787V312.44H33.4678V61.785H62.6688V76.3472C62.6732 77.7531 63.2367 79.0998 64.2356 80.0924C65.2345 81.085 66.5874 81.6425 67.9978 81.6425H68.0144ZM208.94 269.137L173.065 304.937V269.137H208.94ZM239.32 332.353H10.6857V39.0577H62.7019V51.1378H28.1554C27.4518 51.1378 26.7553 51.2766 26.1056 51.5459C25.4559 51.8151 24.8658 52.2095 24.3696 52.7068C23.8734 53.204 23.4805 53.795 23.2138 54.444C22.9471 55.093 22.8116 55.787 22.8153 56.4884V317.791C22.8197 319.199 23.3848 320.547 24.3861 321.54C25.3874 322.533 26.743 323.089 28.1554 323.086H168.273C168.356 323.086 168.434 323.031 168.511 323.031H168.793C168.882 322.976 168.97 322.975 169.059 322.92C169.142 322.929 169.226 322.909 169.297 322.865C169.385 322.865 169.468 322.81 169.557 322.81C169.645 322.81 169.712 322.755 169.789 322.699C169.867 322.644 169.95 322.644 170.027 322.589C170.105 322.534 170.188 322.535 170.265 322.48C170.325 322.423 170.4 322.385 170.481 322.369L170.714 322.204L170.94 322.038L171.134 321.873C171.284 321.797 171.41 321.683 171.499 321.541V321.541L225.652 267.593V267.538L225.984 267.208C226.039 267.152 226.095 267.042 226.15 266.987C226.205 266.932 226.26 266.821 226.316 266.766C226.371 266.711 226.371 266.6 226.426 266.545C226.485 266.484 226.523 266.407 226.537 266.324C226.592 266.269 226.648 266.158 226.703 266.103C226.716 266.003 226.754 265.91 226.814 265.829C226.814 265.773 226.869 265.663 226.869 265.608C226.869 265.553 226.924 265.442 226.98 265.332C227.035 265.221 227.035 265.166 227.035 265.111C227.035 265.056 227.09 264.945 227.09 264.835C227.114 264.744 227.133 264.653 227.146 264.56V264.339C227.194 264.16 227.213 263.973 227.201 263.787V56.4884C227.205 55.7847 227.068 55.0881 226.8 54.4373C226.532 53.7865 226.136 53.1949 225.637 52.6973C225.138 52.1997 224.545 51.8054 223.892 51.5378C223.239 51.2702 222.539 51.1342 221.833 51.1378H187.303V39.0577H239.32V332.353V332.353ZM124.994 102.273C111.528 102.262 98.3608 106.234 87.1592 113.685C75.9577 121.136 67.2251 131.732 62.0666 144.132C56.9082 156.532 55.5557 170.179 58.1802 183.346C60.8047 196.512 67.2884 208.607 76.8107 218.099C86.3329 227.592 98.4657 234.054 111.674 236.671C124.882 239.287 138.572 237.938 151.011 232.796C163.451 227.654 174.081 218.95 181.555 207.783C189.03 196.617 193.014 183.491 193.003 170.067C192.988 152.091 185.819 134.856 173.068 122.145C160.317 109.435 143.027 102.288 124.994 102.273V102.273ZM124.994 227.271C113.65 227.276 102.559 223.927 93.1242 217.65C83.689 211.372 76.3332 202.445 71.9869 192C67.6407 181.554 66.4993 170.059 68.7071 158.967C70.9148 147.875 76.3725 137.685 84.3901 129.686C92.4076 121.686 102.625 116.235 113.75 114.023C124.875 111.812 136.408 112.938 146.891 117.261C157.373 121.583 166.335 128.908 172.642 138.307C178.948 147.707 182.318 158.759 182.323 170.067C182.314 185.226 176.273 199.762 165.525 210.486C154.778 221.21 140.201 227.247 124.994 227.271V227.271ZM157.261 142.155C156.251 141.173 154.895 140.625 153.484 140.625C152.073 140.625 150.718 141.173 149.708 142.155L103.629 188.105L90.3094 174.812C89.3014 173.826 87.9436 173.278 86.5317 173.286C85.1198 173.294 83.7684 173.858 82.7719 174.855C81.7754 175.852 81.2145 177.201 81.2115 178.608C81.2085 180.015 81.7637 181.367 82.756 182.368L99.8494 199.414C100.856 200.403 102.213 200.957 103.626 200.957C105.04 200.957 106.396 200.403 107.403 199.414L157.261 149.713C158.263 148.709 158.826 147.35 158.826 145.934C158.826 144.518 158.263 143.159 157.261 142.155V142.155Z" fill="white"/>
</svg>
