<svg width="250" height="320" viewBox="0 0 250 320" fill="none" xmlns="http://www.w3.org/2000/svg">
<path fill-rule="evenodd" clip-rule="evenodd" d="M172.415 0H0V320H250V77.8138L172.415 0ZM175.532 18.1862L231.84 74.6667H175.532V18.1862ZM10.6383 309.333V10.6667H164.894V85.3333H239.362V309.333H10.6383ZM53.1915 90.6667H101.064C102.475 90.6667 103.827 90.1044 104.825 89.1042C105.822 88.104 106.383 86.7478 106.383 85.3333C106.383 83.9188 105.822 82.5627 104.825 81.5625C103.827 80.5623 102.475 80 101.064 80H53.1915C51.7808 80 50.4279 80.5623 49.4304 81.5625C48.4328 82.5627 47.8723 83.9188 47.8723 85.3333C47.8723 86.7478 48.4328 88.104 49.4304 89.1042C50.4279 90.1044 51.7808 90.6667 53.1915 90.6667ZM53.1915 133.333H79.7872C81.198 133.333 82.5508 132.771 83.5484 131.771C84.5459 130.771 85.1064 129.414 85.1064 128C85.1064 126.586 84.5459 125.229 83.5484 124.229C82.5508 123.229 81.198 122.667 79.7872 122.667H53.1915C51.7808 122.667 50.4279 123.229 49.4304 124.229C48.4328 125.229 47.8723 126.586 47.8723 128C47.8723 129.414 48.4328 130.771 49.4304 131.771C50.4279 132.771 51.7808 133.333 53.1915 133.333ZM132.979 133.333H170.213C171.623 133.333 172.976 132.771 173.974 131.771C174.971 130.771 175.532 129.414 175.532 128C175.532 126.586 174.971 125.229 173.974 124.229C172.976 123.229 171.623 122.667 170.213 122.667H132.979C131.568 122.667 130.215 123.229 129.218 124.229C128.22 125.229 127.66 126.586 127.66 128C127.66 129.414 128.22 130.771 129.218 131.771C130.215 132.771 131.568 133.333 132.979 133.333ZM102.606 124.267C102.112 124.753 101.72 125.334 101.455 125.975C101.19 126.617 101.057 127.306 101.064 128C101.06 129.417 101.614 130.778 102.606 131.786C103.626 132.761 104.975 133.314 106.383 133.333C107.088 133.338 107.786 133.198 108.435 132.923C109.085 132.648 109.671 132.243 110.16 131.733C111.138 130.737 111.691 129.398 111.702 128C111.681 126.588 111.131 125.236 110.16 124.214C109.13 123.257 107.776 122.731 106.373 122.741C104.969 122.751 103.622 123.296 102.606 124.267V124.267ZM196.809 133.333C198.024 133.321 199.199 132.887 200.132 132.105C201.065 131.324 201.7 130.243 201.928 129.046C202.157 127.848 201.964 126.608 201.385 125.536C200.805 124.465 199.873 123.626 198.747 123.165C197.621 122.704 196.371 122.648 195.209 123.007C194.047 123.365 193.044 124.115 192.37 125.13C191.697 126.146 191.395 127.364 191.516 128.577C191.637 129.79 192.172 130.924 193.032 131.786C194.052 132.76 195.4 133.313 196.809 133.333ZM117.021 165.333H79.7872C78.3765 165.333 77.0236 165.896 76.0261 166.896C75.0286 167.896 74.4681 169.252 74.4681 170.667C74.4681 172.081 75.0286 173.437 76.0261 174.438C77.0236 175.438 78.3765 176 79.7872 176H117.021C118.432 176 119.785 175.438 120.782 174.438C121.78 173.437 122.34 172.081 122.34 170.667C122.34 169.252 121.78 167.896 120.782 166.896C119.785 165.896 118.432 165.333 117.021 165.333ZM53.1915 176C54.5996 175.979 55.9483 175.427 56.9682 174.453C57.9571 173.442 58.511 172.083 58.511 170.667C58.511 169.251 57.9571 167.891 56.9682 166.88C55.9396 165.929 54.5911 165.4 53.1915 165.4C51.7919 165.4 50.4434 165.929 49.4148 166.88C48.9194 167.377 48.5278 167.967 48.2629 168.617C47.998 169.267 47.8654 169.964 47.8723 170.667C47.8652 171.369 47.9981 172.066 48.2629 172.716C48.5277 173.366 48.9191 173.958 49.4145 174.454C49.9098 174.951 50.4989 175.343 51.1475 175.608C51.796 175.874 52.491 176.007 53.1915 176V176ZM69.9203 214.24C58.2714 220.32 54.3511 231.947 52.899 244C50.6968 242.133 48.4947 240.266 46.2926 238.453C41.0798 234.08 33.5266 241.547 38.7713 245.974C43.7447 250.187 48.7232 254.347 53.6967 258.507C54.4492 259.221 55.3915 259.702 56.4101 259.892C57.4287 260.082 58.4805 259.975 59.4392 259.581C60.3978 259.187 61.2227 258.523 61.8147 257.671C62.4066 256.818 62.7407 255.812 62.7766 254.773C63.1649 243.2 63.7076 229.439 75.2661 223.413C76.3494 222.641 77.1053 221.491 77.3851 220.189C77.6649 218.886 77.4481 217.525 76.7777 216.375C76.1073 215.225 75.0317 214.368 73.7626 213.973C72.4935 213.578 71.1227 213.672 69.9203 214.24V214.24ZM105.292 235.466C97.9254 237.226 89.5426 246.613 84.3564 236.053C81.3298 229.92 72.1224 235.307 75.1703 241.44C76.4979 244.203 78.491 246.591 80.9696 248.388C83.4482 250.185 86.3343 251.335 89.3672 251.733C92.4109 252.121 95.503 251.718 98.3458 250.56C100.521 249.707 108.649 243.573 110.404 246.72C111.117 247.941 112.284 248.829 113.649 249.188C115.014 249.546 116.465 249.346 117.684 248.632C118.902 247.917 119.787 246.748 120.144 245.379C120.502 244.01 120.303 242.555 119.59 241.333C118.18 238.924 116.021 237.044 113.443 235.984C110.864 234.925 108.01 234.742 105.319 235.466H105.292ZM214.069 184.053C213.625 183.897 213.217 183.651 212.872 183.329C212.527 183.008 212.252 182.619 212.064 182.186C211.881 181.745 211.792 181.27 211.805 180.792C211.818 180.314 211.932 179.844 212.138 179.413C213.38 176.787 213.781 173.841 213.287 170.978C212.794 168.114 211.43 165.474 209.381 163.418C207.333 161.362 204.7 159.992 201.845 159.495C198.99 158.997 196.051 159.398 193.431 160.641C192.996 160.837 192.527 160.943 192.051 160.952C191.574 160.961 191.101 160.872 190.66 160.693C190.215 160.514 189.814 160.241 189.486 159.891C189.158 159.541 188.91 159.123 188.761 158.667C187.783 155.934 185.988 153.571 183.62 151.9C181.252 150.229 178.427 149.331 175.532 149.331C172.636 149.331 169.811 150.229 167.443 151.9C165.076 153.571 163.28 155.934 162.303 158.667C162.146 159.118 161.896 159.532 161.569 159.88C161.243 160.229 160.847 160.506 160.407 160.691C159.968 160.877 159.494 160.968 159.017 160.96C158.54 160.951 158.071 160.843 157.638 160.641C155.024 159.397 152.09 158.993 149.238 159.486C146.386 159.978 143.756 161.344 141.707 163.393C139.658 165.443 138.292 168.077 137.794 170.935C137.296 173.793 137.691 176.735 138.925 179.359C139.131 179.8 139.244 180.279 139.257 180.766C139.27 181.252 139.182 181.735 139 182.186C138.812 182.619 138.537 183.008 138.192 183.329C137.847 183.651 137.439 183.897 136.995 184.053C134.263 185.032 131.9 186.832 130.229 189.21C128.558 191.587 127.661 194.425 127.661 197.333C127.661 200.242 128.558 203.08 130.229 205.457C131.9 207.834 134.263 209.635 136.995 210.613C137.439 210.769 137.847 211.016 138.192 211.337C138.537 211.658 138.812 212.048 139 212.48C139.183 212.922 139.271 213.397 139.259 213.875C139.246 214.353 139.132 214.823 138.925 215.254C138.01 217.197 137.55 219.322 137.577 221.47C137.605 223.618 138.122 225.733 139.087 227.651C140.052 229.569 141.441 231.241 143.148 232.54C144.854 233.839 146.834 234.731 148.936 235.147V300.853L175.532 274.186L202.128 300.853V235.147C204.23 234.731 206.21 233.839 207.916 232.54C209.623 231.241 211.012 229.569 211.977 227.651C212.942 225.733 213.458 223.618 213.486 221.47C213.514 219.322 213.053 217.197 212.138 215.254C211.933 214.823 211.82 214.353 211.807 213.875C211.794 213.397 211.882 212.922 212.064 212.48C212.244 212.043 212.516 211.649 212.862 211.327C213.209 211.005 213.62 210.761 214.069 210.613C216.801 209.635 219.164 207.834 220.835 205.457C222.506 203.08 223.403 200.242 223.403 197.333C223.403 194.425 222.506 191.587 220.835 189.21C219.164 186.832 216.801 185.032 214.069 184.053V184.053ZM175.532 259.147L159.574 275.147V233.76H159.713C159.953 233.793 160.187 233.865 160.404 233.974C160.763 234.108 161.095 234.306 161.383 234.56C161.795 234.942 162.111 235.418 162.303 235.947C163.268 238.692 165.059 241.068 167.428 242.75C169.798 244.432 172.629 245.335 175.532 245.335C178.435 245.335 181.266 244.432 183.636 242.75C186.005 241.068 187.796 238.692 188.761 235.947C188.953 235.418 189.269 234.942 189.681 234.56C189.97 234.308 190.301 234.11 190.66 233.974C190.875 233.865 191.107 233.793 191.346 233.76H191.489V275.094L175.532 259.147ZM210.505 200.534C208.656 201.196 206.966 202.238 205.543 203.595C204.12 204.952 202.997 206.594 202.246 208.413C201.494 210.232 201.13 212.188 201.179 214.156C201.227 216.124 201.686 218.06 202.527 219.84C202.849 220.474 202.959 221.197 202.838 221.898C202.717 222.6 202.373 223.244 201.856 223.733C201.467 224.112 200.993 224.392 200.474 224.549C199.955 224.707 199.406 224.739 198.872 224.641L197.702 224.267C197.213 224.081 196.714 223.92 196.208 223.786C195.835 223.68 195.473 223.519 195.096 223.413C194.568 223.315 194.035 223.245 193.5 223.201L192.218 223.04C191.703 223.067 191.19 223.121 190.681 223.201C190.235 223.183 189.789 223.219 189.351 223.307C188.402 223.469 187.474 223.737 186.585 224.107C186.351 224.213 186.154 224.374 185.925 224.48C185.255 224.782 184.611 225.139 184 225.547C183.279 226.042 182.613 226.614 182.016 227.254L181.787 227.413C180.44 228.858 179.4 230.565 178.734 232.427C178.489 233.081 178.05 233.643 177.476 234.038C176.901 234.433 176.22 234.641 175.524 234.635C174.828 234.63 174.15 234.41 173.582 234.005C173.015 233.601 172.585 233.031 172.351 232.374C171.684 230.528 170.644 228.838 169.298 227.413C169.245 227.359 169.176 227.307 169.117 227.254C168.489 226.61 167.808 226.021 167.08 225.493C166.492 225.12 165.872 224.799 165.229 224.534C164.997 224.37 164.752 224.226 164.495 224.107V224.107C164.383 224.053 164.266 224.053 164.154 224C163.39 223.692 162.597 223.461 161.787 223.307C161.147 223.184 160.498 223.112 159.846 223.094C159.607 223.094 159.367 223.04 159.128 223.04H159.043C157.122 223.009 155.219 223.41 153.474 224.214L152.266 224.587C151.651 224.727 151.009 224.688 150.415 224.477C149.821 224.265 149.299 223.889 148.909 223.392C148.52 222.895 148.278 222.298 148.213 221.669C148.149 221.041 148.263 220.406 148.543 219.84C149.383 218.06 149.842 216.124 149.89 214.156C149.939 212.188 149.576 210.232 148.824 208.413C148.072 206.594 146.949 204.952 145.526 203.595C144.103 202.238 142.413 201.196 140.564 200.534C139.903 200.301 139.33 199.867 138.925 199.294C138.52 198.721 138.303 198.036 138.303 197.333C138.303 196.631 138.52 195.946 138.925 195.372C139.33 194.799 139.903 194.366 140.564 194.133C142.417 193.468 144.11 192.42 145.535 191.059C146.96 189.697 148.084 188.052 148.836 186.228C149.588 184.404 149.95 182.443 149.899 180.47C149.849 178.497 149.387 176.556 148.543 174.773C148.217 174.149 148.106 173.434 148.227 172.74C148.348 172.045 148.695 171.41 149.213 170.934C149.695 170.413 150.333 170.064 151.031 169.939C151.728 169.814 152.447 169.919 153.08 170.24C154.853 171.095 156.786 171.566 158.753 171.621C160.72 171.676 162.676 171.314 164.494 170.559C166.312 169.804 167.951 168.673 169.303 167.24C170.655 165.806 171.69 164.102 172.341 162.24C172.585 161.589 173.021 161.029 173.591 160.633C174.161 160.237 174.838 160.025 175.532 160.025C176.226 160.025 176.902 160.237 177.473 160.633C178.043 161.029 178.479 161.589 178.723 162.24C179.379 164.1 180.416 165.803 181.769 167.236C183.121 168.669 184.758 169.801 186.574 170.56C188.39 171.327 190.348 171.695 192.317 171.639C194.286 171.584 196.22 171.107 197.989 170.24C198.628 169.944 199.342 169.854 200.034 169.979C200.726 170.105 201.363 170.44 201.858 170.941C202.353 171.442 202.682 172.084 202.801 172.779C202.919 173.474 202.822 174.189 202.521 174.827C201.681 176.606 201.222 178.542 201.174 180.51C201.125 182.479 201.488 184.435 202.24 186.254C202.992 188.073 204.115 189.715 205.538 191.072C206.96 192.429 208.651 193.471 210.5 194.133C211.159 194.368 211.729 194.801 212.132 195.374C212.536 195.946 212.752 196.631 212.753 197.332C212.754 198.033 212.538 198.717 212.135 199.29C211.733 199.864 211.164 200.298 210.505 200.534V200.534Z" fill="white"/>
</svg>
