<svg width="250" height="250" viewBox="0 0 250 250" fill="none" xmlns="http://www.w3.org/2000/svg">
<path fill-rule="evenodd" clip-rule="evenodd" d="M165.555 187.5C165.552 188.882 165.003 190.207 164.027 191.186C163.051 192.165 161.728 192.717 160.346 192.723H74.2999C72.915 192.723 71.5867 192.173 70.6075 191.194C69.6282 190.214 69.0782 188.885 69.0782 187.5C69.0782 186.115 69.6282 184.786 70.6075 183.806C71.5867 182.827 72.915 182.277 74.2999 182.277H160.346C161.728 182.283 163.051 182.835 164.027 183.814C165.003 184.793 165.552 186.118 165.555 187.5ZM166.858 98.9729C166.837 112.78 161.341 126.014 151.577 135.773C141.813 145.531 128.577 151.018 114.775 151.027H114.659C100.851 151.027 87.6095 145.54 77.8462 135.774C68.0829 126.008 62.5979 112.762 62.5979 98.9511C62.5979 85.1397 68.0829 71.8934 77.8462 62.1273C87.6095 52.3611 100.851 46.875 114.659 46.875H114.775C128.584 46.8868 141.825 52.3791 151.59 62.1469C161.355 71.9146 166.846 85.1592 166.858 98.9729V98.9729ZM73.2958 93.75H93.8478V67.7229C93.843 65.9607 94.065 64.2055 94.5083 62.5C88.7625 65.6703 83.8461 70.1529 80.16 75.5833C76.4738 81.0137 74.1221 87.2383 73.2958 93.75V93.75ZM94.5083 135.447C94.0704 133.74 93.8484 131.985 93.8478 130.223V104.152H73.2958C74.1294 110.67 76.4857 116.898 80.1741 122.335C83.8626 127.772 88.7792 132.264 94.526 135.447H94.5083ZM125.133 104.152H104.264V130.223C104.264 132.991 105.364 135.646 107.321 137.604C109.277 139.561 111.931 140.661 114.699 140.661C117.466 140.661 120.12 139.561 122.077 137.604C124.034 135.646 125.133 132.991 125.133 130.223V104.152ZM125.133 67.7229C125.133 64.9547 124.034 62.3005 122.077 60.3431C120.12 58.3857 117.466 57.2859 114.699 57.2859C111.931 57.2859 109.277 58.3857 107.321 60.3431C105.364 62.3005 104.264 64.9547 104.264 67.7229V93.75H125.133V67.7229ZM156.102 104.152H135.55V130.223C135.549 131.985 135.327 133.74 134.889 135.447C140.636 132.264 145.553 127.772 149.241 122.335C152.93 116.898 155.286 110.67 156.12 104.152H156.102ZM156.102 93.75C155.276 87.2383 152.924 81.0137 149.237 75.5833C145.551 70.1529 140.635 65.6703 134.889 62.5C135.333 64.2055 135.555 65.9607 135.55 67.7229V93.75H156.102ZM248.396 73.0362L198.13 194.375V223.973C198.116 230.875 195.367 237.491 190.485 242.37C185.604 247.248 178.989 249.992 172.088 250H15.6205C11.4777 250 7.50462 248.354 4.57522 245.423C1.64581 242.493 0 238.519 0 234.375V15.625C0 11.481 1.64581 7.5068 4.57522 4.57655C7.50462 1.64629 11.4777 0 15.6205 0H172.106C179.006 0.00825587 185.622 2.75194 190.503 7.63048C195.385 12.509 198.134 19.1249 198.148 26.0271V29.7318L237.123 45.8483C239.652 46.8884 241.95 48.4171 243.887 50.3475C245.824 52.2779 247.361 54.5716 248.41 57.0973C249.459 59.623 249.999 62.3318 250 65.0667C250.001 67.8017 249.462 70.5099 248.414 73.0362H248.396ZM31.2676 10.4021H15.6027C14.2213 10.4092 12.8985 10.9616 11.9229 11.94C10.9473 12.9184 10.398 14.2431 10.3945 15.625V234.375C10.398 235.757 10.9473 237.082 11.9229 238.06C12.8985 239.038 14.2213 239.591 15.6027 239.598H31.2676V10.4021ZM187.713 26.0271C187.713 21.8831 186.068 17.9089 183.138 14.9787C180.209 12.0484 176.236 10.4021 172.093 10.4021H41.7021V239.598H172.106C176.249 239.598 180.222 237.952 183.152 235.021C186.081 232.091 187.727 228.117 187.727 223.973V79.0623C187.642 78.53 187.642 77.9881 187.727 77.4558V33.3481C187.727 33.2588 187.727 33.1693 187.727 33.08V26.0271H187.713ZM238.774 61.1158C238.255 59.8438 237.487 58.6874 236.517 57.7142C235.547 56.741 234.394 55.9701 233.124 55.4461L198.13 40.9818V74.8215L206.694 78.3484C207.973 78.8765 208.989 79.8904 209.52 81.168C210.05 82.4456 210.052 83.8817 209.524 85.1604C208.996 86.4391 207.982 87.4557 206.705 87.9865C205.427 88.5173 203.992 88.519 202.713 87.9909L198.13 86.0716V167.143L226.809 97.9462L221.266 95.6693C220.633 95.4079 220.058 95.0241 219.573 94.5402C219.088 94.0563 218.703 93.4823 218.441 92.8497C218.178 92.2171 218.042 91.5391 218.042 90.8541C218.041 90.1691 218.175 89.4905 218.437 88.8574C218.698 88.2242 219.081 87.6486 219.565 87.1637C220.049 86.6788 220.623 86.2941 221.256 86.0312C221.888 85.7684 222.566 85.6331 223.251 85.6323C223.936 85.6316 224.614 85.7654 225.247 86.0269L230.799 88.3037L238.774 69.0624C239.305 67.8055 239.58 66.4551 239.583 65.0907C239.586 63.7263 239.317 62.3751 238.792 61.1158H238.774Z" fill="white"/>
</svg>
