<svg width="250" height="234" viewBox="0 0 250 234" fill="none" xmlns="http://www.w3.org/2000/svg">
<path fill-rule="evenodd" clip-rule="evenodd" d="M229.384 37.6705H147.213L149.781 4.2166C149.818 3.6787 149.744 3.13886 149.564 2.63067C149.385 2.12247 149.103 1.65664 148.737 1.26166C148.371 0.866677 147.929 0.551086 147.436 0.334229C146.944 0.117372 146.413 0.00309394 145.875 0H104.123C103.585 0.00305255 103.054 0.117323 102.562 0.334229C102.07 0.551135 101.628 0.866601 101.262 1.26166C100.896 1.65672 100.615 2.12249 100.436 2.63067C100.257 3.13885 100.184 3.67893 100.221 4.2166L102.789 37.6705H20.6184C15.1465 37.6825 9.90285 39.8703 6.03787 43.7541C2.17288 47.6379 0.00224607 52.9006 0.00225917 58.3871V184C-0.0155906 184.526 0.0724849 185.051 0.261096 185.542C0.449706 186.034 0.734989 186.483 1.10011 186.862C1.46522 187.24 1.90265 187.541 2.38629 187.747C2.86993 187.953 3.38994 188.059 3.9153 188.059C4.44065 188.059 4.96067 187.953 5.44431 187.747C5.92795 187.541 6.36537 187.24 6.73049 186.862C7.09561 186.483 7.38089 186.034 7.5695 185.542C7.75811 185.051 7.84619 184.526 7.82834 184V79.0584H191.805C192.848 79.0584 193.848 78.6426 194.586 77.903C195.324 77.1634 195.738 76.16 195.738 75.114C195.738 74.0681 195.324 73.0647 194.586 72.3251C193.848 71.5855 192.848 71.1708 191.805 71.1708H7.82834V58.3871C7.82655 56.7023 8.15607 55.0336 8.79814 53.4766C9.44022 51.9196 10.3822 50.5047 11.5701 49.3131C12.7581 48.1216 14.1687 47.1763 15.7213 46.532C17.2739 45.8876 18.938 45.5568 20.6184 45.558H103.39L104.394 58.6594C104.471 59.6455 104.916 60.566 105.64 61.238C106.364 61.9101 107.314 62.2835 108.3 62.285H141.702C142.688 62.2834 143.637 61.9102 144.361 61.238C145.084 60.5659 145.528 59.6451 145.604 58.6594L146.612 45.558H229.384C231.064 45.5568 232.728 45.8887 234.28 46.5331C235.833 47.1775 237.243 48.1215 238.431 49.3131C239.618 50.5047 240.56 51.9197 241.201 53.4766C241.843 55.0335 242.172 56.7025 242.17 58.3871V71.1708H212.683C211.64 71.1708 210.639 71.5855 209.902 72.3251C209.164 73.0647 208.75 74.0681 208.75 75.114C208.75 76.16 209.164 77.1634 209.902 77.903C210.639 78.6426 211.64 79.0584 212.683 79.0584H242.17V226.158H7.82834V204.943C7.79384 203.926 7.36645 202.961 6.63639 202.254C5.90633 201.546 4.93065 201.15 3.9153 201.15C2.89994 201.15 1.92426 201.546 1.1942 202.254C0.464142 202.961 0.0367574 203.926 0.00225917 204.943V230.101C0.00942112 231.137 0.425128 232.13 1.15861 232.86C1.89209 233.59 2.8838 234 3.9175 234H246.085C247.118 234 248.11 233.59 248.844 232.86C249.577 232.13 249.993 231.137 250 230.101V58.3871C250 52.9006 247.83 47.6379 243.965 43.7541C240.1 39.8703 234.856 37.6825 229.384 37.6705V37.6705ZM138.058 54.4428H111.908L108.332 7.84331H141.63L138.058 54.4428ZM62.3526 87.9431C56.6203 87.9404 51.0158 89.6425 46.2483 92.8337C41.4808 96.0249 37.7642 100.562 35.5687 105.871C33.3732 111.18 32.7973 117.023 33.914 122.661C35.0306 128.298 37.7897 133.477 41.8421 137.542C45.8945 141.607 51.0583 144.376 56.6803 145.498C62.3022 146.62 68.1299 146.046 73.4261 143.847C78.7223 141.648 83.2492 137.924 86.4342 133.145C89.6191 128.366 91.3191 122.748 91.3191 117C91.3083 109.302 88.256 101.923 82.8303 96.477C77.4047 91.031 70.0479 87.9623 62.3707 87.9431H62.3526ZM62.3526 138.215C58.1668 138.219 54.0738 136.979 50.5913 134.651C47.1088 132.323 44.3933 129.011 42.7884 125.134C41.1834 121.258 40.7612 116.992 41.575 112.875C42.3889 108.758 44.4023 104.977 47.3605 102.007C50.3187 99.0381 54.0888 97.0152 58.1938 96.1948C62.2988 95.3744 66.5542 95.7928 70.4218 97.3978C74.2893 99.0029 77.5952 101.722 79.9212 105.211C82.2471 108.701 83.4886 112.803 83.4886 117C83.485 122.618 81.2602 128.006 77.3018 131.983C73.3433 135.959 67.9741 138.2 62.3707 138.215H62.3526ZM83.2309 146.601H41.4742C36.0072 146.604 30.7648 148.782 26.899 152.658C23.0333 156.534 20.8604 161.791 20.858 167.273V213.329C20.8569 213.845 20.9572 214.357 21.1533 214.835C21.3494 215.313 21.6374 215.748 22.001 216.114C22.3646 216.481 22.7965 216.771 23.2721 216.97C23.7478 217.169 24.2579 217.272 24.7733 217.273H99.9317C100.447 217.272 100.957 217.169 101.433 216.97C101.909 216.771 102.34 216.481 102.704 216.114C103.068 215.748 103.356 215.313 103.552 214.835C103.748 214.357 103.848 213.845 103.847 213.329V167.273C103.845 161.794 101.674 156.541 97.8125 152.665C93.9506 148.79 88.7128 146.609 83.2489 146.601H83.2309ZM96.0165 209.385H28.7066V167.273C28.7102 163.873 30.0582 160.613 32.4549 158.209C34.8516 155.804 38.1016 154.45 41.4922 154.444H83.2445C86.636 154.448 89.887 155.801 92.2848 158.206C94.6825 160.611 96.031 163.872 96.0346 167.273V209.385H96.0165ZM225.188 133.999H183.436C182.393 133.999 181.393 134.415 180.655 135.155C179.917 135.894 179.503 136.898 179.503 137.944C179.503 138.989 179.917 139.993 180.655 140.732C181.393 141.472 182.393 141.887 183.436 141.887H225.188C226.232 141.889 227.233 141.476 227.972 140.738C228.712 140 229.128 138.998 229.131 137.952C229.133 136.906 228.721 135.903 227.985 135.161C227.249 134.42 226.25 134.002 225.206 133.999H225.188ZM225.188 167.5H125.006C123.963 167.5 122.962 167.914 122.224 168.654C121.487 169.393 121.072 170.397 121.072 171.443C121.072 172.489 121.487 173.492 122.224 174.232C122.962 174.971 123.963 175.387 125.006 175.387H225.211C225.728 175.387 226.239 175.285 226.716 175.086C227.193 174.888 227.627 174.597 227.992 174.231C228.357 173.864 228.646 173.429 228.844 172.95C229.041 172.472 229.142 171.958 229.142 171.441C229.142 170.923 229.04 170.41 228.842 169.932C228.644 169.454 228.354 169.019 227.988 168.653C227.623 168.287 227.189 167.996 226.712 167.798C226.235 167.6 225.723 167.499 225.206 167.5H225.188ZM183.436 201.044H125.006C123.969 201.044 122.974 201.458 122.24 202.193C121.507 202.928 121.095 203.925 121.095 204.965C121.095 206.005 121.507 207.002 122.24 207.738C122.974 208.473 123.969 208.886 125.006 208.886H183.459C184.496 208.886 185.49 208.472 186.223 207.736C186.956 207.001 187.368 206.003 187.367 204.963C187.367 203.923 186.954 202.926 186.22 202.191C185.486 201.456 184.491 201.044 183.454 201.044H183.436ZM166.735 133.999H125.006C123.963 133.999 122.962 134.415 122.224 135.155C121.487 135.894 121.072 136.898 121.072 137.944C121.072 138.989 121.487 139.993 122.224 140.732C122.962 141.472 123.963 141.887 125.006 141.887H166.758C167.274 141.886 167.786 141.784 168.263 141.586C168.74 141.387 169.174 141.097 169.539 140.73C169.904 140.364 170.193 139.929 170.39 139.451C170.588 138.972 170.689 138.459 170.689 137.941C170.689 137.423 170.587 136.91 170.389 136.432C170.191 135.953 169.901 135.518 169.535 135.152C169.17 134.786 168.736 134.497 168.259 134.299C167.781 134.101 167.27 133.999 166.753 133.999H166.735ZM124.983 12.5568C122.554 12.555 120.179 13.2763 118.159 14.6286C116.139 15.9809 114.564 17.9033 113.634 20.1533C112.704 22.4034 112.461 24.8798 112.936 27.2684C113.41 29.657 114.581 31.8511 116.299 33.5723C118.018 35.2935 120.207 36.4648 122.59 36.9378C124.973 37.4109 127.442 37.1642 129.685 36.2295C131.928 35.2948 133.844 33.7136 135.19 31.6864C136.537 29.6593 137.253 27.278 137.249 24.8425C137.24 21.5885 135.948 18.4698 133.654 16.168C131.36 13.8663 128.251 12.5676 125.006 12.5568H124.983ZM124.983 29.3302C124.103 29.3338 123.241 29.0751 122.507 28.5876C121.772 28.1002 121.199 27.4054 120.858 26.5911C120.518 25.7769 120.426 24.8792 120.594 24.0125C120.761 23.1457 121.182 22.3487 121.802 21.7216C122.422 21.0944 123.213 20.6661 124.076 20.4898C124.939 20.3135 125.834 20.3971 126.649 20.731C127.465 21.065 128.163 21.634 128.656 22.3657C129.148 23.0973 129.414 23.9596 129.418 24.8425C129.417 26.0215 128.954 27.1526 128.128 27.9922C127.303 28.8318 126.181 29.3124 125.006 29.3302H124.983ZM225.188 87.9431H125.006C124.49 87.9443 123.98 88.0475 123.505 88.2464C123.029 88.4452 122.597 88.7356 122.233 89.1019C121.87 89.4681 121.582 89.9023 121.386 90.3801C121.19 90.858 121.089 91.3696 121.091 91.8864V108.614C121.089 109.131 121.19 109.643 121.386 110.121C121.582 110.598 121.87 111.033 122.233 111.399C122.597 111.765 123.029 112.056 123.505 112.254C123.98 112.453 124.49 112.556 125.006 112.558H225.211C225.726 112.556 226.236 112.453 226.712 112.254C227.188 112.056 227.62 111.765 227.983 111.399C228.347 111.033 228.635 110.598 228.831 110.121C229.027 109.643 229.127 109.131 229.126 108.614V91.8864C229.127 91.3693 229.027 90.8571 228.831 90.379C228.634 89.9009 228.346 89.467 227.982 89.1007C227.618 88.7345 227.185 88.4427 226.709 88.2441C226.233 88.0456 225.722 87.9437 225.206 87.9431H225.188ZM221.273 104.715H128.912V95.7853H221.305V104.715H221.273Z" fill="white"/>
</svg>
