<svg width="637" height="127" viewBox="0 0 637 127" fill="none" xmlns="http://www.w3.org/2000/svg">
<path d="M293.059 1.32031H300.046L309.104 28.2603L318.136 1.32031H325.123L311.925 39H306.257L293.059 1.32031ZM289.022 1.32031H296.139L297.458 29.2437V39H289.022V1.32031ZM322.043 1.32031H329.186V39H320.724V29.2437L322.043 1.32031ZM351.571 8.48877L341.841 39H332.835L346.784 1.32031H352.477L351.571 8.48877ZM359.646 39L349.889 8.48877L348.88 1.32031H354.651L368.651 39H359.646ZM359.231 24.9736V31.4951H339.589V24.9736H359.231ZM371.653 1.32031H380.09V32.4785H390.053V1.32031H398.464V32.4785H408.272V1.32031H416.683V39H371.653V1.32031ZM430.838 25.957L445.201 1.32031H453.612V39H445.201V14.3892L430.838 39H422.428V1.32031H430.838V25.957ZM485.003 16.4854V23.0068H465.49V16.4854H485.003ZM468.156 1.32031V39H459.719V1.32031H468.156ZM490.826 1.32031V39H482.415V1.32031H490.826ZM513.211 8.48877L503.48 39H494.475L508.423 1.32031H514.117L513.211 8.48877ZM521.285 39L511.529 8.48877L510.52 1.32031H516.291L530.291 39H521.285ZM520.871 24.9736V31.4951H501.229V24.9736H520.871Z" fill="black"/>
<path d="M551.512 1.29443V39H543.412V10.5073L534.665 13.1729V6.91016L550.709 1.29443H551.512ZM589.114 16.7959V23.4985C589.114 26.259 588.803 28.6484 588.182 30.667C587.578 32.6855 586.698 34.3504 585.542 35.6616C584.404 36.9728 583.041 37.9476 581.454 38.5859C579.884 39.207 578.141 39.5176 576.226 39.5176C574.691 39.5176 573.259 39.3192 571.93 38.9224C570.602 38.5256 569.403 37.9131 568.333 37.085C567.281 36.2396 566.375 35.1872 565.616 33.9277C564.857 32.6683 564.27 31.1673 563.856 29.4248C563.459 27.6823 563.261 25.7069 563.261 23.4985V16.7959C563.261 14.001 563.563 11.6029 564.167 9.60156C564.788 7.60026 565.676 5.94401 566.832 4.63281C567.988 3.32161 569.351 2.35547 570.921 1.73438C572.508 1.11328 574.259 0.802734 576.174 0.802734C577.71 0.802734 579.133 1.00114 580.444 1.39795C581.773 1.79476 582.972 2.40723 584.042 3.23535C585.111 4.06348 586.017 5.10726 586.759 6.3667C587.518 7.62614 588.096 9.12712 588.493 10.8696C588.907 12.5949 589.114 14.5703 589.114 16.7959ZM581.04 24.5078V15.7349C581.04 14.4409 580.962 13.3195 580.807 12.3706C580.669 11.4045 580.462 10.585 580.186 9.91211C579.927 9.23926 579.599 8.6958 579.202 8.28174C578.805 7.86768 578.348 7.56576 577.831 7.37598C577.33 7.16895 576.778 7.06543 576.174 7.06543C575.415 7.06543 574.734 7.2207 574.13 7.53125C573.526 7.8418 573.017 8.3335 572.603 9.00635C572.189 9.66195 571.87 10.5505 571.646 11.6719C571.438 12.776 571.335 14.1304 571.335 15.7349V24.5078C571.335 25.8018 571.404 26.9318 571.542 27.8979C571.697 28.8641 571.904 29.6922 572.163 30.3823C572.439 31.0552 572.776 31.6073 573.172 32.0386C573.569 32.4526 574.026 32.7546 574.544 32.9443C575.062 33.1341 575.622 33.229 576.226 33.229C576.985 33.229 577.658 33.0824 578.245 32.7891C578.831 32.4785 579.332 31.9868 579.746 31.314C580.177 30.6239 580.496 29.7181 580.703 28.5967C580.927 27.4753 581.04 26.1123 581.04 24.5078ZM619.987 32.7114V39H593.953V33.6689L606.116 20.7812C607.255 19.4701 608.161 18.3141 608.833 17.3135C609.524 16.3128 610.024 15.4071 610.334 14.5962C610.645 13.7681 610.8 13.009 610.8 12.3188C610.8 11.1974 610.619 10.2485 610.257 9.47217C609.912 8.6958 609.403 8.10059 608.73 7.68652C608.057 7.27246 607.238 7.06543 606.271 7.06543C605.236 7.06543 604.348 7.33285 603.606 7.86768C602.864 8.40251 602.295 9.14437 601.898 10.0933C601.501 11.0249 601.303 12.0859 601.303 13.2764H593.177C593.177 10.9818 593.729 8.89421 594.833 7.01367C595.937 5.11589 597.481 3.60628 599.465 2.48486C601.449 1.34619 603.77 0.776855 606.427 0.776855C609.153 0.776855 611.439 1.20817 613.285 2.0708C615.131 2.93343 616.528 4.16699 617.477 5.77148C618.426 7.37598 618.9 9.30827 618.9 11.5684C618.9 12.8451 618.693 14.0786 618.279 15.269C617.882 16.4595 617.305 17.6413 616.545 18.8145C615.786 19.9876 614.872 21.1867 613.802 22.4116C612.733 23.6193 611.525 24.896 610.179 26.2417L604.486 32.7114H619.987ZM325.635 63.0039H320.549L320.959 60.502L325.074 60.5156C325.721 60.5156 326.337 60.4154 326.92 60.2148C327.503 60.0052 327.995 59.6862 328.396 59.2578C328.798 58.8203 329.048 58.2507 329.148 57.5488C329.23 56.8926 329.162 56.3685 328.943 55.9766C328.734 55.5846 328.406 55.3021 327.959 55.1289C327.512 54.9466 326.988 54.8509 326.387 54.8418L322.996 54.8281L320.016 72H316.652L320.111 52.0938L326.469 52.1074C327.316 52.1257 328.118 52.235 328.875 52.4355C329.632 52.627 330.292 52.9277 330.857 53.3379C331.432 53.748 331.869 54.2858 332.17 54.9512C332.48 55.6074 332.603 56.4141 332.539 57.3711C332.466 58.3919 332.156 59.2441 331.609 59.9277C331.062 60.6022 330.365 61.1217 329.518 61.4863C328.679 61.8418 327.795 62.0651 326.865 62.1562L325.635 63.0039ZM323.98 72H317.842L319.811 69.2793L324.076 69.293C324.76 69.293 325.393 69.1745 325.977 68.9375C326.56 68.7005 327.043 68.3451 327.426 67.8711C327.818 67.388 328.064 66.7956 328.164 66.0938C328.246 65.474 328.21 64.9408 328.055 64.4941C327.9 64.0384 327.622 63.6875 327.221 63.4414C326.82 63.1862 326.3 63.0449 325.662 63.0176L321.725 63.0039L322.189 60.502L326.92 60.5156L327.494 61.459C328.351 61.541 329.085 61.7871 329.695 62.1973C330.315 62.5983 330.775 63.1315 331.076 63.7969C331.386 64.4622 331.514 65.2279 331.459 66.0938C331.359 67.4609 330.953 68.582 330.242 69.457C329.531 70.332 328.624 70.9792 327.521 71.3984C326.419 71.8086 325.238 72.0091 323.98 72ZM337.611 61.9102L341.645 61.9238C342.629 61.9512 343.522 62.1562 344.324 62.5391C345.135 62.9128 345.769 63.4596 346.225 64.1797C346.68 64.8906 346.872 65.7747 346.799 66.832C346.744 67.6979 346.525 68.459 346.143 69.1152C345.769 69.7624 345.277 70.3047 344.666 70.7422C344.055 71.1706 343.372 71.4896 342.615 71.6992C341.868 71.9089 341.098 72.0091 340.305 72H333.756L336.312 57.207H339.525L337.42 69.3887L340.387 69.4023C340.915 69.3932 341.403 69.2975 341.85 69.1152C342.305 68.9238 342.688 68.6458 342.998 68.2812C343.308 67.9076 343.504 67.4427 343.586 66.8867C343.65 66.4128 343.609 66.0072 343.463 65.6699C343.326 65.3236 343.094 65.0547 342.766 64.8633C342.438 64.6719 342.046 64.5671 341.59 64.5488L337.16 64.5352L337.611 61.9102ZM354.168 57.207L351.598 72H348.371L350.941 57.207H354.168ZM361.496 57.207L358.939 72H355.727L358.297 57.207H361.496ZM370.984 57.207L362.973 66.1074H359.227L359.322 63.127H361.865L366.76 57.207H370.984ZM364.654 72L361.373 65.4238L364.08 63.6602L368.688 72H364.654ZM374.963 70.2227L381.061 57.207H384.615L375.947 74.2695C375.701 74.7799 375.419 75.263 375.1 75.7188C374.79 76.1745 374.434 76.5755 374.033 76.9219C373.632 77.2682 373.181 77.5371 372.68 77.7285C372.188 77.929 371.632 78.0293 371.012 78.0293C370.729 78.0202 370.451 77.9883 370.178 77.9336C369.895 77.888 369.617 77.8333 369.344 77.7695L369.576 75.2402C369.676 75.2493 369.777 75.2585 369.877 75.2676C369.977 75.2858 370.077 75.2949 370.178 75.2949C370.697 75.3132 371.153 75.2448 371.545 75.0898C371.937 74.944 372.279 74.7161 372.57 74.4062C372.871 74.0964 373.135 73.7181 373.363 73.2715L374.963 70.2227ZM374.99 57.207L376.494 68.4453L376.467 71.8086L374.225 72.3828L371.627 57.207H374.99ZM396.018 57.207L395.566 59.832H388.457L388.922 57.207H396.018ZM389.688 57.207L387.117 72H383.904L386.475 57.207H389.688ZM398.533 57.207L395.963 72H392.723L395.293 57.207H398.533ZM414.871 69.0332L415.992 61.9375C416.047 61.4635 416.015 61.0352 415.896 60.6523C415.778 60.2695 415.559 59.9688 415.24 59.75C414.93 59.5221 414.52 59.4036 414.01 59.3945C413.554 59.3854 413.126 59.4629 412.725 59.627C412.324 59.7819 411.982 60.0143 411.699 60.3242C411.426 60.6341 411.243 61.0124 411.152 61.459L407.939 61.4727C407.994 60.6979 408.222 60.0234 408.623 59.4492C409.033 58.8659 409.548 58.3874 410.168 58.0137C410.797 57.6309 411.471 57.3529 412.191 57.1797C412.921 56.9974 413.632 56.9108 414.324 56.9199C415.327 56.9382 416.215 57.1523 416.99 57.5625C417.765 57.9727 418.353 58.5514 418.754 59.2988C419.164 60.0462 419.319 60.9486 419.219 62.0059L418.139 68.5957C418.057 69.1152 417.997 69.6484 417.961 70.1953C417.934 70.7331 418.007 71.2526 418.18 71.7539L418.152 72L414.967 72.0137C414.83 71.5306 414.762 71.0384 414.762 70.5371C414.762 70.0267 414.798 69.5254 414.871 69.0332ZM416.361 63.0039L416.033 65.041L413.9 65.0273C413.463 65.0273 413.012 65.0684 412.547 65.1504C412.091 65.2324 411.663 65.3737 411.262 65.5742C410.861 65.7747 410.523 66.0482 410.25 66.3945C409.977 66.7318 409.808 67.1556 409.744 67.666C409.699 68.0762 409.744 68.4316 409.881 68.7324C410.027 69.0241 410.245 69.2565 410.537 69.4297C410.829 69.6029 411.175 69.694 411.576 69.7031C412.114 69.7122 412.643 69.6074 413.162 69.3887C413.691 69.1699 414.146 68.86 414.529 68.459C414.921 68.0488 415.19 67.5794 415.336 67.0508L416.197 68.5273C415.997 69.0833 415.714 69.5938 415.35 70.0586C414.994 70.5234 414.579 70.9245 414.105 71.2617C413.632 71.599 413.112 71.8587 412.547 72.041C411.991 72.2233 411.417 72.3099 410.824 72.3008C410.004 72.2826 409.257 72.0957 408.582 71.7402C407.908 71.3757 407.374 70.8698 406.982 70.2227C406.59 69.5755 406.417 68.8281 406.463 67.9805C406.508 67.0234 406.75 66.2259 407.188 65.5879C407.634 64.9408 408.204 64.4303 408.896 64.0566C409.598 63.6738 410.364 63.4004 411.193 63.2363C412.023 63.0723 412.843 62.9902 413.654 62.9902L416.361 63.0039ZM429.09 65.6699H424.359L424.742 63.3457L428.352 63.3594C428.78 63.3411 429.222 63.291 429.678 63.209C430.143 63.1178 430.548 62.9447 430.895 62.6895C431.241 62.4251 431.455 62.0378 431.537 61.5273C431.592 61.1719 431.555 60.8848 431.428 60.666C431.309 60.4382 431.132 60.265 430.895 60.1465C430.667 60.028 430.407 59.946 430.115 59.9004C429.824 59.8457 429.536 59.8184 429.254 59.8184L426.465 59.8047L424.346 72H421.146L423.703 57.207L429.322 57.2207C429.96 57.2298 430.607 57.2982 431.264 57.4258C431.929 57.5534 432.535 57.763 433.082 58.0547C433.629 58.3464 434.062 58.7474 434.381 59.2578C434.709 59.7682 434.855 60.4154 434.818 61.1992C434.782 61.8281 434.613 62.3613 434.312 62.7988C434.012 63.2272 433.624 63.5781 433.15 63.8516C432.676 64.125 432.161 64.3392 431.605 64.4941C431.059 64.64 430.521 64.7357 429.992 64.7812L429.09 65.6699ZM428.064 72H422.268L423.99 69.4023L428.146 69.416C428.593 69.4069 429.031 69.3477 429.459 69.2383C429.887 69.1198 430.252 68.9193 430.553 68.6367C430.863 68.3542 431.059 67.9622 431.141 67.4609C431.204 67.0143 431.15 66.6634 430.977 66.4082C430.803 66.153 430.548 65.9707 430.211 65.8613C429.883 65.752 429.532 65.6927 429.158 65.6836L425.303 65.6699L425.74 63.3457L429.951 63.3594L430.676 64.2617C431.314 64.3438 431.911 64.5169 432.467 64.7812C433.023 65.0456 433.469 65.4193 433.807 65.9023C434.144 66.3763 434.303 66.9688 434.285 67.6797C434.249 68.5182 434.044 69.2201 433.67 69.7852C433.296 70.3411 432.804 70.7832 432.193 71.1113C431.592 71.4303 430.931 71.6628 430.211 71.8086C429.491 71.9453 428.775 72.0091 428.064 72ZM445.414 57.207L442.844 72H439.617L442.188 57.207H445.414ZM450.117 57.207L449.666 59.8047H437.102L437.553 57.207H450.117ZM449.83 64.8496L449.871 64.5352C449.98 63.5143 450.231 62.5436 450.623 61.623C451.015 60.7025 451.535 59.8867 452.182 59.1758C452.838 58.4557 453.608 57.8952 454.492 57.4941C455.385 57.0931 456.379 56.9062 457.473 56.9336C458.53 56.9518 459.437 57.1706 460.193 57.5898C460.959 58.0091 461.579 58.5697 462.053 59.2715C462.536 59.9642 462.873 60.7572 463.064 61.6504C463.256 62.5345 463.306 63.4596 463.215 64.4258L463.188 64.7402C463.069 65.7611 462.809 66.7272 462.408 67.6387C462.016 68.5501 461.492 69.3613 460.836 70.0723C460.189 70.7741 459.419 71.3255 458.525 71.7266C457.641 72.1185 456.657 72.3008 455.572 72.2734C454.524 72.2552 453.617 72.041 452.852 71.6309C452.095 71.2116 451.475 70.6556 450.992 69.9629C450.518 69.2702 450.186 68.4863 449.994 67.6113C449.803 66.7272 449.748 65.8066 449.83 64.8496ZM453.07 64.5352L453.043 64.8496C452.997 65.3509 452.993 65.8796 453.029 66.4355C453.066 66.9915 453.175 67.5111 453.357 67.9941C453.54 68.4772 453.822 68.8737 454.205 69.1836C454.588 69.4935 455.098 69.6576 455.736 69.6758C456.411 69.694 456.999 69.5573 457.5 69.2656C458.001 68.974 458.421 68.582 458.758 68.0898C459.095 67.5977 459.364 67.0599 459.564 66.4766C459.765 65.8841 459.897 65.3053 459.961 64.7402L459.988 64.4258C460.043 63.9336 460.052 63.4095 460.016 62.8535C459.979 62.2884 459.87 61.7598 459.688 61.2676C459.505 60.7663 459.223 60.3607 458.84 60.0508C458.457 59.7318 457.947 59.5632 457.309 59.5449C456.625 59.5267 456.033 59.668 455.531 59.9688C455.03 60.2604 454.611 60.6569 454.273 61.1582C453.936 61.6595 453.667 62.2064 453.467 62.7988C453.275 63.3913 453.143 63.9701 453.07 64.5352ZM479.02 64.9316L486.102 52.0938H489.93L480.441 68.4043C480.122 68.9785 479.781 69.5072 479.416 69.9902C479.051 70.4642 478.646 70.8789 478.199 71.2344C477.762 71.5898 477.265 71.8587 476.709 72.041C476.162 72.2324 475.538 72.3281 474.836 72.3281C474.59 72.3281 474.339 72.319 474.084 72.3008C473.838 72.2826 473.592 72.2598 473.346 72.2324L473.646 69.5117C473.811 69.5391 473.984 69.5618 474.166 69.5801C474.348 69.5983 474.531 69.6074 474.713 69.6074C475.187 69.6074 475.592 69.5208 475.93 69.3477C476.276 69.1745 476.577 68.9375 476.832 68.6367C477.087 68.3268 477.32 67.9759 477.529 67.584L479.02 64.9316ZM477.516 52.0938L480.496 63.2637L480.824 66.6953L478.322 66.8047L474.029 52.0938H477.516ZM498.857 53.9531L502.645 53.9805C503.766 54.0078 504.764 54.2357 505.639 54.6641C506.523 55.0924 507.261 55.6712 507.854 56.4004C508.446 57.1296 508.874 57.9772 509.139 58.9434C509.403 59.9004 509.476 60.9212 509.357 62.0059C509.239 63.1999 508.92 64.2982 508.4 65.3008C507.89 66.3034 507.22 67.1693 506.391 67.8984C505.57 68.6276 504.636 69.1973 503.588 69.6074C502.54 70.0085 501.419 70.209 500.225 70.209L496.438 70.1816C495.307 70.1634 494.3 69.9492 493.416 69.5391C492.541 69.1198 491.807 68.5501 491.215 67.8301C490.622 67.1009 490.194 66.2624 489.93 65.3145C489.665 64.3665 489.592 63.3457 489.711 62.252C489.829 61.0488 490.144 59.946 490.654 58.9434C491.174 57.9316 491.844 57.0521 492.664 56.3047C493.484 55.5573 494.419 54.9785 495.467 54.5684C496.524 54.1582 497.654 53.9531 498.857 53.9531ZM498.748 56.6875C497.645 56.6784 496.674 56.9199 495.836 57.4121C495.007 57.8952 494.337 58.556 493.826 59.3945C493.325 60.2331 493.006 61.1901 492.869 62.2656C492.787 62.931 492.792 63.569 492.883 64.1797C492.974 64.7904 493.165 65.3372 493.457 65.8203C493.749 66.3034 494.145 66.6908 494.646 66.9824C495.157 67.2741 495.781 67.4336 496.52 67.4609L500.348 67.4883C501.441 67.4883 502.398 67.2513 503.219 66.7773C504.048 66.3034 504.718 65.6517 505.229 64.8223C505.739 63.9928 506.058 63.054 506.186 62.0059C506.277 61.3314 506.277 60.6842 506.186 60.0645C506.104 59.4447 505.917 58.8887 505.625 58.3965C505.342 57.9043 504.951 57.5078 504.449 57.207C503.957 56.9062 503.333 56.7422 502.576 56.7148L498.748 56.6875ZM503.027 51.2734L499.295 72.8203H496.068L499.801 51.2734H503.027ZM521.047 54.9238L512.365 72H508.729L519.447 52.0938H521.785L521.047 54.9238ZM522.934 72L520.117 54.5547L520.322 52.0938H522.496L526.338 72H522.934ZM523.904 64.6172L523.426 67.3379H512.898L513.377 64.6172H523.904ZM539.312 66.9824L546.531 57.207H549.854L547.283 72H544.057L545.766 62.2246L538.533 72H535.225L537.795 57.207H541.008L539.312 66.9824ZM566.684 64.5898L561.461 64.5762L561.939 61.8555L566.793 61.8691C567.549 61.8691 568.242 61.7415 568.871 61.4863C569.509 61.222 570.033 60.8301 570.443 60.3105C570.863 59.791 571.122 59.1302 571.223 58.3281C571.323 57.6536 571.273 57.0612 571.072 56.5508C570.872 56.0312 570.544 55.6257 570.088 55.334C569.632 55.0332 569.058 54.8691 568.365 54.8418L564.195 54.8281L561.215 72H557.852L561.311 52.0938L568.461 52.1074C569.691 52.1348 570.79 52.3991 571.756 52.9004C572.722 53.3926 573.46 54.0944 573.971 55.0059C574.49 55.9173 574.695 57.0156 574.586 58.3008C574.467 59.7318 574.03 60.9167 573.273 61.8555C572.526 62.7852 571.574 63.4733 570.416 63.9199C569.258 64.3665 568.014 64.5898 566.684 64.5898ZM590.91 52.0938L590.432 54.8281H581.463L578.482 72H575.146L578.592 52.0938H590.91ZM579.576 59.7363L584.238 59.75C585.432 59.7773 586.512 60.0189 587.479 60.4746C588.445 60.9303 589.192 61.5957 589.721 62.4707C590.258 63.3457 590.473 64.4212 590.363 65.6973C590.281 66.7454 590.012 67.666 589.557 68.459C589.101 69.2428 588.508 69.8991 587.779 70.4277C587.05 70.9564 586.234 71.3529 585.332 71.6172C584.43 71.8815 583.491 72.0091 582.516 72H575.16L578.605 52.0938H581.969L578.975 69.2793L582.611 69.293C583.359 69.293 584.047 69.1517 584.676 68.8691C585.314 68.5866 585.838 68.1764 586.248 67.6387C586.667 67.1009 586.932 66.4447 587.041 65.6699C587.123 65.0046 587.055 64.4395 586.836 63.9746C586.617 63.5007 586.275 63.1406 585.811 62.8945C585.355 62.6393 584.803 62.498 584.156 62.4707L579.098 62.457L579.576 59.7363Z" fill="#EE0D0D"/>
<path fill-rule="evenodd" clip-rule="evenodd" d="M372.381 96.8009L370.275 103.602L362.638 104.301L355 105.001L360.949 109.034C364.222 111.252 366.899 113.219 366.899 113.405C366.899 113.591 365.947 116.438 364.784 119.733C363.62 123.028 362.867 125.921 363.109 126.163C363.352 126.405 365.916 124.921 368.808 122.864C374.457 118.846 373.78 118.75 383.34 124.959L386.483 127L384.39 121.071C383.239 117.809 382.297 114.677 382.297 114.109C382.297 113.541 384.93 111.259 388.149 109.039L394 105.001L386.512 104.301L379.023 103.602L376.755 96.8009L374.486 90L372.381 96.8009Z" fill="#ED2222"/>
<path fill-rule="evenodd" clip-rule="evenodd" d="M412.489 96.8009L410.492 103.602L403.246 104.301L396 105.001L401.644 109.034C404.749 111.252 407.289 113.219 407.289 113.405C407.289 113.591 406.385 116.438 405.282 119.733C404.178 123.028 403.464 125.921 403.694 126.163C403.923 126.405 406.356 124.921 409.1 122.864C414.459 118.846 413.817 118.75 422.887 124.959L425.868 127L423.883 121.071C422.791 117.809 421.897 114.677 421.897 114.109C421.897 113.541 424.395 111.259 427.449 109.039L433 105.001L425.896 104.301L418.791 103.602L416.64 96.8009L414.487 90L412.489 96.8009Z" fill="#ED2222"/>
<path fill-rule="evenodd" clip-rule="evenodd" d="M451.935 96.8009L449.884 103.602L442.442 104.301L435 105.001L440.797 109.034C443.986 111.252 446.594 113.219 446.594 113.405C446.594 113.591 445.666 116.438 444.533 119.733C443.399 123.028 442.665 125.921 442.901 126.163C443.137 126.405 445.636 124.921 448.454 122.864C453.958 118.846 453.299 118.75 462.613 124.959L465.676 127L463.636 121.071C462.515 117.809 461.597 114.677 461.597 114.109C461.597 113.541 464.163 111.259 467.299 109.039L473 105.001L465.704 104.301L458.407 103.602L456.197 96.8009L453.986 90L451.935 96.8009Z" fill="#ED2222"/>
<path fill-rule="evenodd" clip-rule="evenodd" d="M491.489 96.8009L489.492 103.602L482.246 104.301L475 105.001L480.644 109.034C483.749 111.252 486.289 113.219 486.289 113.405C486.289 113.591 485.385 116.438 484.282 119.733C483.178 123.028 482.464 125.921 482.694 126.163C482.923 126.405 485.356 124.921 488.1 122.864C493.459 118.846 492.817 118.75 501.887 124.959L504.868 127L502.883 121.071C501.791 117.809 500.897 114.677 500.897 114.109C500.897 113.541 503.395 111.259 506.449 109.039L512 105.001L504.896 104.301L497.791 103.602L495.64 96.8009L493.487 90L491.489 96.8009Z" fill="#ED2222"/>
<path fill-rule="evenodd" clip-rule="evenodd" d="M531.381 96.8009L529.275 103.602L521.638 104.301L514 105.001L519.949 109.034C523.222 111.252 525.899 113.219 525.899 113.405C525.899 113.591 524.947 116.438 523.784 119.733C522.62 123.028 521.867 125.921 522.109 126.163C522.352 126.405 524.916 124.921 527.808 122.864C533.457 118.846 532.78 118.75 542.34 124.959L545.483 127L543.39 121.071C542.239 117.809 541.297 114.677 541.297 114.109C541.297 113.541 543.93 111.259 547.149 109.039L553 105.001L545.512 104.301L538.023 103.602L535.755 96.8009L533.486 90L531.381 96.8009Z" fill="#ED2222"/>
<path fill-rule="evenodd" clip-rule="evenodd" d="M100.955 4.40018C88.0543 5.19347 73.9181 6.89719 69.8758 8.14671C61.7868 10.6458 53.9848 18.963 37.5361 42.6225C35.624 45.373 34.1049 45.2072 29.5353 41.7497C24.3072 37.7943 22.2976 37.0065 17.3151 36.9592C13.6008 36.9243 12.0449 37.2599 9.41372 38.6609C5.24772 40.8797 3.15121 44.4043 4.35815 47.1603C5.5585 49.9011 8.66968 50.8492 18.1803 51.3719C28.0794 51.9152 29.0559 52.2488 27.182 54.4423C25.5128 56.3975 21.6293 58.1532 16.6731 59.1938C9.31562 60.7393 4.36078 64.616 1.45966 71.0986C-0.765903 76.0714 -0.555199 79.5699 2.84569 94.1176C4.47535 101.088 5.80871 107.744 5.80871 108.908C5.80871 112.104 8.22391 121.271 9.86608 124.311L11.3186 127H126.963H242.608L244.061 124.311C245.717 121.244 248.118 112.093 248.118 108.845C248.118 107.646 249.321 101.761 250.792 95.7672C252.262 89.7737 253.637 82.6492 253.847 79.9357C254.192 75.4939 254.049 74.617 252.417 71.1473C249.201 64.3098 244.694 60.7564 237.254 59.1938C232.298 58.1532 228.414 56.3975 226.745 54.4423C224.872 52.2488 225.853 51.9159 235.615 51.4302C240.732 51.1753 245.027 50.6047 246.436 49.9916C253.151 47.0726 249.545 39.2938 240.502 37.1887C235.851 36.1056 231.862 36.866 227.632 39.6432C221.691 43.5432 219.059 44.9058 218.161 44.5475C217.689 44.3591 215.88 42.1025 214.141 39.5329C203.195 23.3555 193.351 12.3502 187.213 9.42639C180.424 6.19296 162.266 4.43923 131.573 4.05355C120.165 3.90969 106.387 4.06588 100.955 4.40018ZM160.215 9.89907C171.713 10.6677 178.528 11.5939 183.59 13.0777C186.843 14.0313 187.981 14.9506 194.784 22.1251C202.474 30.2354 209.715 39.9844 212.044 45.3627C213.255 48.1597 213.264 48.4029 212.21 49.6162C209.079 53.2147 191.455 56.3844 166.8 57.7826C150.704 58.6951 103.199 58.6999 87.4564 57.7902C61.7466 56.3043 44.4478 53.112 41.3986 49.2894C40.6914 48.4023 40.8376 47.6124 42.2723 44.5612C46.5687 35.4254 61.9093 17.3962 68.0434 14.2738C72.4418 12.0351 79.6584 10.8342 94.4314 9.884C115.578 8.52349 139.718 8.52897 160.215 9.89907ZM97.3332 13.3353C84.4177 14.0087 76.004 15.4178 71.1835 17.7134C66.3643 20.009 57.6952 29.1037 52.3762 37.4428C48.0048 44.2981 46.9559 46.5129 49.1749 44.2043C53.0413 40.1817 63.9946 34.2149 72.9706 31.2418C87.2154 26.5232 95.9524 25.7943 148.692 24.9243C170.24 24.5694 188.241 24.2707 188.693 24.2604C191.195 24.2056 187.447 19.5768 181.811 15.7624C179.373 14.1128 178.828 14.0512 160.215 13.3332C139.093 12.518 112.992 12.5194 97.3332 13.3353ZM52.0997 74.4218C58.3161 82.7582 60.3705 86.2183 59.5876 87.0329C58.6605 87.9974 55.5888 85.4203 51.7507 80.4557C47.4135 74.8472 36.2416 57.7655 35.6852 55.8933C35.0867 53.8758 45.7799 65.947 52.0997 74.4218ZM215.832 60.3468C207.839 73.5751 197.248 87.2671 195.008 87.2671C193.278 87.2671 194.178 84.9188 197.87 79.7926C205.627 69.0215 217.662 54.6677 218.342 55.3747C218.509 55.548 217.379 57.7854 215.832 60.3468ZM23.0614 79.7734C33.9857 81.4113 44.9088 83.9727 49.0023 85.8566C50.709 86.6417 52.4059 88.092 53.2046 89.447C54.8 92.1536 59.6607 104.861 60.2263 107.803L60.6246 109.874H57.3976C47.507 109.874 33.6466 106.607 24.9301 102.222C15.9449 97.7018 8.46885 88.5722 8.4491 82.095C8.43593 77.8601 9.34261 77.7162 23.0614 79.7734ZM244.211 79.0705C247.369 80.8291 244.394 89.1962 238.391 95.4418C231.931 102.162 219.385 107.37 205.336 109.162C197.321 110.185 193.467 110.098 193.467 108.898C193.467 107.275 198.006 94.6958 199.913 91.0349C201.215 88.5359 202.466 87.2062 204.541 86.1169C208.12 84.2379 219.086 81.4908 229.724 79.809C239.44 78.2731 242.498 78.1169 244.211 79.0705ZM88.7773 101.276C115.836 104.541 137.397 104.527 165.74 101.227C176.384 99.9878 179.203 100.381 182.438 103.557C184.608 105.687 184.679 106.732 182.867 109.826C182.11 111.118 180.171 114.89 178.56 118.209C178.52 118.293 178.48 118.376 178.441 118.458C176.345 122.885 171.955 125.297 167.067 125.602C159.539 126.072 146.264 126.353 126.963 126.281L83.6231 125.596V125.596C80.621 124.943 78.0451 123.03 76.5524 120.344L74.221 116.15C71.7221 111.125 69.6783 106.631 69.6783 106.165C69.6783 104.076 75.524 100.365 78.9005 100.31C79.8079 100.295 84.2524 100.73 88.7773 101.276Z" fill="black"/>
</svg>
