<svg width="189" height="123" viewBox="0 0 189 123" fill="none" xmlns="http://www.w3.org/2000/svg">
<path fill-rule="evenodd" clip-rule="evenodd" d="M75.1198 0.400181C65.5207 1.19347 55.002 2.89719 51.9942 4.14671C45.9752 6.64577 40.1698 14.963 27.9304 38.6225C26.5076 41.373 25.3773 41.2072 21.977 37.7497C18.0868 33.7943 16.5915 33.0065 12.8841 32.9592C10.1203 32.9243 8.96254 33.2599 7.0047 34.6609C3.9048 36.8797 2.3448 40.4043 3.24288 43.1603C4.13605 45.9011 6.45106 46.8492 13.5279 47.3719C20.8938 47.9152 21.6204 48.2488 20.226 50.4423C18.9839 52.3975 16.0942 54.1532 12.4064 55.1938C6.9317 56.7393 3.24484 60.616 1.08612 67.0986C-0.569904 72.0714 -0.413121 75.5699 2.11746 90.1176C3.33009 97.088 4.32223 103.744 4.32223 104.908C4.32223 108.104 6.11936 117.271 7.3413 120.311L8.42212 123H94.4728H180.523L181.604 120.311C182.837 117.244 184.623 108.093 184.623 104.845C184.623 103.646 185.518 97.7614 186.613 91.7672C187.707 85.7737 188.73 78.6492 188.886 75.9357C189.143 71.4939 189.036 70.617 187.822 67.1473C185.429 60.3098 182.076 56.7564 176.539 55.1938C172.851 54.1532 169.962 52.3975 168.72 50.4423C167.326 48.2488 168.056 47.9159 175.32 47.4302C179.128 47.1753 182.323 46.6047 183.372 45.9916C188.368 43.0726 185.685 35.2938 178.956 33.1887C175.495 32.1056 172.527 32.866 169.38 35.6432C164.959 39.5432 163.001 40.9058 162.332 40.5475C161.981 40.3591 160.635 38.1025 159.341 35.5329C151.196 19.3555 143.871 8.35018 139.304 5.42639C134.252 2.19296 120.741 0.439229 97.9024 0.0535468C89.4141 -0.0903135 79.1619 0.0658774 75.1198 0.400181ZM119.215 5.89907C127.771 6.6677 132.842 7.59388 136.608 9.0777C139.029 10.0313 139.875 10.9506 144.937 18.1251C150.66 26.2354 156.048 35.9844 157.781 41.3627C158.682 44.1597 158.689 44.4029 157.904 45.6162C155.575 49.2147 142.46 52.3844 124.115 53.7826C112.138 54.6951 76.7896 54.6999 65.0759 53.7902C45.9453 52.3043 33.0734 49.112 30.8044 45.2894C30.2782 44.4023 30.387 43.6124 31.4546 40.5612C34.6515 31.4254 46.0663 13.3962 50.6307 10.2738C53.9036 8.03505 59.2734 6.83416 70.2659 5.884C86.0011 4.52349 103.963 4.52897 119.215 5.89907ZM72.4251 9.33528C62.8147 10.0087 56.5542 11.4178 52.9673 13.7134C49.3813 16.009 42.9307 25.1037 38.9729 33.4428C35.7201 40.2981 34.9396 42.5129 36.5907 40.2043C39.4677 36.1817 47.618 30.2149 54.297 27.2418C64.8965 22.5232 71.3977 21.7943 110.641 20.9243C126.675 20.5694 140.069 20.2707 140.405 20.2604C142.267 20.2056 139.478 15.5768 135.285 11.7624C133.471 10.1128 133.065 10.0512 119.215 9.33322C103.499 8.51801 84.077 8.51938 72.4251 9.33528ZM38.7671 70.4218C43.3927 78.7582 44.9213 82.2183 44.3388 83.0329C43.6489 83.9974 41.3633 81.4203 38.5074 76.4557C35.2801 70.8472 26.9672 53.7655 26.5532 51.8933C26.1078 49.8758 34.0646 61.947 38.7671 70.4218ZM160.599 56.3468C154.652 69.5751 146.771 83.2671 145.105 83.2671C143.817 83.2671 144.487 80.9188 147.234 75.7926C153.006 65.0215 161.961 50.6677 162.467 51.3747C162.591 51.548 161.751 53.7854 160.599 56.3468ZM17.1599 75.7734C25.2886 77.4113 33.4164 79.9727 36.4624 81.8566C37.7323 82.6417 38.9949 84.092 39.5892 85.447C40.7764 88.1536 44.3932 100.861 44.814 103.803L45.1105 105.874H42.7092C35.3497 105.874 25.0363 102.607 18.5503 98.2218C11.8645 93.7018 6.30162 84.5722 6.28693 78.095C6.27713 73.8601 6.95179 73.7162 17.1599 75.7734ZM181.716 75.0705C184.066 76.8291 181.852 85.1962 177.385 91.4418C172.579 98.1622 163.243 103.37 152.789 105.162C146.826 106.185 143.958 106.098 143.958 104.898C143.958 103.275 147.335 90.6958 148.754 87.0349C149.723 84.5359 150.654 83.2062 152.198 82.1169C154.861 80.2379 163.021 77.4908 170.937 75.809C178.166 74.2731 180.442 74.1169 181.716 75.0705ZM66.0587 97.2757C86.1926 100.541 102.236 100.527 123.326 97.2271C131.246 95.9878 133.344 96.381 135.751 99.5569C137.366 101.687 137.419 102.732 136.07 105.826C135.507 107.118 134.065 110.89 132.866 114.209V114.209C131.278 118.604 127.403 121.401 122.741 121.721C116.946 122.118 107.575 122.347 94.4728 122.281L62.2235 121.596V121.596C60.0019 120.947 58.1948 119.324 57.3101 117.185L55.2274 112.15C53.368 107.125 51.8472 102.631 51.8472 102.165C51.8472 100.076 56.197 96.3646 58.7095 96.3098C59.3846 96.2954 62.6918 96.7297 66.0587 97.2757Z" fill="black"/>
</svg>
