<svg width="366" height="127" viewBox="0 0 366 127" fill="none" xmlns="http://www.w3.org/2000/svg">
<path d="M22.0591 1.32031H29.0464L38.104 28.2603L47.1357 1.32031H54.123L40.9248 39H35.2573L22.0591 1.32031ZM18.022 1.32031H25.1387L26.4585 29.2437V39H18.022V1.32031ZM51.0435 1.32031H58.186V39H49.7236V29.2437L51.0435 1.32031ZM80.5713 8.48877L70.8408 39H61.835L75.7837 1.32031H81.4771L80.5713 8.48877ZM88.6455 39L78.8892 8.48877L77.8799 1.32031H83.6509L97.6514 39H88.6455ZM88.2314 24.9736V31.4951H68.5894V24.9736H88.2314ZM100.653 1.32031H109.09V32.4785H119.053V1.32031H127.464V32.4785H137.272V1.32031H145.683V39H100.653V1.32031ZM159.838 25.957L174.201 1.32031H182.612V39H174.201V14.3892L159.838 39H151.428V1.32031H159.838V25.957ZM214.003 16.4854V23.0068H194.49V16.4854H214.003ZM197.156 1.32031V39H188.719V1.32031H197.156ZM219.826 1.32031V39H211.415V1.32031H219.826ZM242.211 8.48877L232.48 39H223.475L237.423 1.32031H243.117L242.211 8.48877ZM250.285 39L240.529 8.48877L239.52 1.32031H245.291L259.291 39H250.285ZM249.871 24.9736V31.4951H230.229V24.9736H249.871Z" fill="black"/>
<path d="M280.512 1.29443V39H272.412V10.5073L263.665 13.1729V6.91016L279.709 1.29443H280.512ZM318.114 16.7959V23.4985C318.114 26.259 317.803 28.6484 317.182 30.667C316.578 32.6855 315.698 34.3504 314.542 35.6616C313.404 36.9728 312.041 37.9476 310.454 38.5859C308.884 39.207 307.141 39.5176 305.226 39.5176C303.691 39.5176 302.259 39.3192 300.93 38.9224C299.602 38.5256 298.403 37.9131 297.333 37.085C296.281 36.2396 295.375 35.1872 294.616 33.9277C293.857 32.6683 293.27 31.1673 292.856 29.4248C292.459 27.6823 292.261 25.7069 292.261 23.4985V16.7959C292.261 14.001 292.563 11.6029 293.167 9.60156C293.788 7.60026 294.676 5.94401 295.832 4.63281C296.988 3.32161 298.351 2.35547 299.921 1.73438C301.508 1.11328 303.259 0.802734 305.174 0.802734C306.71 0.802734 308.133 1.00114 309.444 1.39795C310.773 1.79476 311.972 2.40723 313.042 3.23535C314.111 4.06348 315.017 5.10726 315.759 6.3667C316.518 7.62614 317.096 9.12712 317.493 10.8696C317.907 12.5949 318.114 14.5703 318.114 16.7959ZM310.04 24.5078V15.7349C310.04 14.4409 309.962 13.3195 309.807 12.3706C309.669 11.4045 309.462 10.585 309.186 9.91211C308.927 9.23926 308.599 8.6958 308.202 8.28174C307.805 7.86768 307.348 7.56576 306.831 7.37598C306.33 7.16895 305.778 7.06543 305.174 7.06543C304.415 7.06543 303.734 7.2207 303.13 7.53125C302.526 7.8418 302.017 8.3335 301.603 9.00635C301.189 9.66195 300.87 10.5505 300.646 11.6719C300.438 12.776 300.335 14.1304 300.335 15.7349V24.5078C300.335 25.8018 300.404 26.9318 300.542 27.8979C300.697 28.8641 300.904 29.6922 301.163 30.3823C301.439 31.0552 301.776 31.6073 302.172 32.0386C302.569 32.4526 303.026 32.7546 303.544 32.9443C304.062 33.1341 304.622 33.229 305.226 33.229C305.985 33.229 306.658 33.0824 307.245 32.7891C307.831 32.4785 308.332 31.9868 308.746 31.314C309.177 30.6239 309.496 29.7181 309.703 28.5967C309.927 27.4753 310.04 26.1123 310.04 24.5078ZM348.987 32.7114V39H322.953V33.6689L335.116 20.7812C336.255 19.4701 337.161 18.3141 337.833 17.3135C338.524 16.3128 339.024 15.4071 339.334 14.5962C339.645 13.7681 339.8 13.009 339.8 12.3188C339.8 11.1974 339.619 10.2485 339.257 9.47217C338.912 8.6958 338.403 8.10059 337.73 7.68652C337.057 7.27246 336.238 7.06543 335.271 7.06543C334.236 7.06543 333.348 7.33285 332.606 7.86768C331.864 8.40251 331.295 9.14437 330.898 10.0933C330.501 11.0249 330.303 12.0859 330.303 13.2764H322.177C322.177 10.9818 322.729 8.89421 323.833 7.01367C324.937 5.11589 326.481 3.60628 328.465 2.48486C330.449 1.34619 332.77 0.776855 335.427 0.776855C338.153 0.776855 340.439 1.20817 342.285 2.0708C344.131 2.93343 345.528 4.16699 346.477 5.77148C347.426 7.37598 347.9 9.30827 347.9 11.5684C347.9 12.8451 347.693 14.0786 347.279 15.269C346.882 16.4595 346.305 17.6413 345.545 18.8145C344.786 19.9876 343.872 21.1867 342.802 22.4116C341.733 23.6193 340.525 24.896 339.179 26.2417L333.486 32.7114H348.987ZM54.6348 63.0039H49.5488L49.959 60.502L54.0742 60.5156C54.7214 60.5156 55.3366 60.4154 55.9199 60.2148C56.5033 60.0052 56.9954 59.6862 57.3965 59.2578C57.7975 58.8203 58.0482 58.2507 58.1484 57.5488C58.2305 56.8926 58.1621 56.3685 57.9434 55.9766C57.7337 55.5846 57.4056 55.3021 56.959 55.1289C56.5124 54.9466 55.9883 54.8509 55.3867 54.8418L51.9961 54.8281L49.0156 72H45.6523L49.1113 52.0938L55.4688 52.1074C56.3164 52.1257 57.1185 52.235 57.875 52.4355C58.6315 52.627 59.2923 52.9277 59.8574 53.3379C60.4316 53.748 60.8691 54.2858 61.1699 54.9512C61.4798 55.6074 61.6029 56.4141 61.5391 57.3711C61.4661 58.3919 61.1562 59.2441 60.6094 59.9277C60.0625 60.6022 59.3652 61.1217 58.5176 61.4863C57.679 61.8418 56.7949 62.0651 55.8652 62.1562L54.6348 63.0039ZM52.9805 72H46.8418L48.8105 69.2793L53.0762 69.293C53.7598 69.293 54.3932 69.1745 54.9766 68.9375C55.5599 68.7005 56.043 68.3451 56.4258 67.8711C56.8177 67.388 57.0638 66.7956 57.1641 66.0938C57.2461 65.474 57.2096 64.9408 57.0547 64.4941C56.8997 64.0384 56.6217 63.6875 56.2207 63.4414C55.8197 63.1862 55.3001 63.0449 54.6621 63.0176L50.7246 63.0039L51.1895 60.502L55.9199 60.5156L56.4941 61.459C57.3509 61.541 58.0846 61.7871 58.6953 62.1973C59.3151 62.5983 59.7754 63.1315 60.0762 63.7969C60.3861 64.4622 60.5137 65.2279 60.459 66.0938C60.3587 67.4609 59.9531 68.582 59.2422 69.457C58.5312 70.332 57.6243 70.9792 56.5215 71.3984C55.4186 71.8086 54.2383 72.0091 52.9805 72ZM66.6113 61.9102L70.6445 61.9238C71.6289 61.9512 72.5221 62.1562 73.3242 62.5391C74.1354 62.9128 74.7689 63.4596 75.2246 64.1797C75.6803 64.8906 75.8717 65.7747 75.7988 66.832C75.7441 67.6979 75.5254 68.459 75.1426 69.1152C74.7689 69.7624 74.2767 70.3047 73.666 70.7422C73.0553 71.1706 72.3717 71.4896 71.6152 71.6992C70.8678 71.9089 70.0977 72.0091 69.3047 72H62.7559L65.3125 57.207H68.5254L66.4199 69.3887L69.3867 69.4023C69.9154 69.3932 70.403 69.2975 70.8496 69.1152C71.3053 68.9238 71.6882 68.6458 71.998 68.2812C72.3079 67.9076 72.5039 67.4427 72.5859 66.8867C72.6497 66.4128 72.6087 66.0072 72.4629 65.6699C72.3262 65.3236 72.0938 65.0547 71.7656 64.8633C71.4375 64.6719 71.0456 64.5671 70.5898 64.5488L66.1602 64.5352L66.6113 61.9102ZM83.168 57.207L80.5977 72H77.3711L79.9414 57.207H83.168ZM90.4961 57.207L87.9395 72H84.7266L87.2969 57.207H90.4961ZM99.9844 57.207L91.9727 66.1074H88.2266L88.3223 63.127H90.8652L95.7598 57.207H99.9844ZM93.6543 72L90.373 65.4238L93.0801 63.6602L97.6875 72H93.6543ZM103.963 70.2227L110.061 57.207H113.615L104.947 74.2695C104.701 74.7799 104.419 75.263 104.1 75.7188C103.79 76.1745 103.434 76.5755 103.033 76.9219C102.632 77.2682 102.181 77.5371 101.68 77.7285C101.188 77.929 100.632 78.0293 100.012 78.0293C99.7292 78.0202 99.4512 77.9883 99.1777 77.9336C98.8952 77.888 98.6172 77.8333 98.3438 77.7695L98.5762 75.2402C98.6764 75.2493 98.7767 75.2585 98.877 75.2676C98.9772 75.2858 99.0775 75.2949 99.1777 75.2949C99.6973 75.3132 100.153 75.2448 100.545 75.0898C100.937 74.944 101.279 74.7161 101.57 74.4062C101.871 74.0964 102.135 73.7181 102.363 73.2715L103.963 70.2227ZM103.99 57.207L105.494 68.4453L105.467 71.8086L103.225 72.3828L100.627 57.207H103.99ZM125.018 57.207L124.566 59.832H117.457L117.922 57.207H125.018ZM118.688 57.207L116.117 72H112.904L115.475 57.207H118.688ZM127.533 57.207L124.963 72H121.723L124.293 57.207H127.533ZM143.871 69.0332L144.992 61.9375C145.047 61.4635 145.015 61.0352 144.896 60.6523C144.778 60.2695 144.559 59.9688 144.24 59.75C143.93 59.5221 143.52 59.4036 143.01 59.3945C142.554 59.3854 142.126 59.4629 141.725 59.627C141.324 59.7819 140.982 60.0143 140.699 60.3242C140.426 60.6341 140.243 61.0124 140.152 61.459L136.939 61.4727C136.994 60.6979 137.222 60.0234 137.623 59.4492C138.033 58.8659 138.548 58.3874 139.168 58.0137C139.797 57.6309 140.471 57.3529 141.191 57.1797C141.921 56.9974 142.632 56.9108 143.324 56.9199C144.327 56.9382 145.215 57.1523 145.99 57.5625C146.765 57.9727 147.353 58.5514 147.754 59.2988C148.164 60.0462 148.319 60.9486 148.219 62.0059L147.139 68.5957C147.057 69.1152 146.997 69.6484 146.961 70.1953C146.934 70.7331 147.007 71.2526 147.18 71.7539L147.152 72L143.967 72.0137C143.83 71.5306 143.762 71.0384 143.762 70.5371C143.762 70.0267 143.798 69.5254 143.871 69.0332ZM145.361 63.0039L145.033 65.041L142.9 65.0273C142.463 65.0273 142.012 65.0684 141.547 65.1504C141.091 65.2324 140.663 65.3737 140.262 65.5742C139.861 65.7747 139.523 66.0482 139.25 66.3945C138.977 66.7318 138.808 67.1556 138.744 67.666C138.699 68.0762 138.744 68.4316 138.881 68.7324C139.027 69.0241 139.245 69.2565 139.537 69.4297C139.829 69.6029 140.175 69.694 140.576 69.7031C141.114 69.7122 141.643 69.6074 142.162 69.3887C142.691 69.1699 143.146 68.86 143.529 68.459C143.921 68.0488 144.19 67.5794 144.336 67.0508L145.197 68.5273C144.997 69.0833 144.714 69.5938 144.35 70.0586C143.994 70.5234 143.579 70.9245 143.105 71.2617C142.632 71.599 142.112 71.8587 141.547 72.041C140.991 72.2233 140.417 72.3099 139.824 72.3008C139.004 72.2826 138.257 72.0957 137.582 71.7402C136.908 71.3757 136.374 70.8698 135.982 70.2227C135.59 69.5755 135.417 68.8281 135.463 67.9805C135.508 67.0234 135.75 66.2259 136.188 65.5879C136.634 64.9408 137.204 64.4303 137.896 64.0566C138.598 63.6738 139.364 63.4004 140.193 63.2363C141.023 63.0723 141.843 62.9902 142.654 62.9902L145.361 63.0039ZM158.09 65.6699H153.359L153.742 63.3457L157.352 63.3594C157.78 63.3411 158.222 63.291 158.678 63.209C159.143 63.1178 159.548 62.9447 159.895 62.6895C160.241 62.4251 160.455 62.0378 160.537 61.5273C160.592 61.1719 160.555 60.8848 160.428 60.666C160.309 60.4382 160.132 60.265 159.895 60.1465C159.667 60.028 159.407 59.946 159.115 59.9004C158.824 59.8457 158.536 59.8184 158.254 59.8184L155.465 59.8047L153.346 72H150.146L152.703 57.207L158.322 57.2207C158.96 57.2298 159.607 57.2982 160.264 57.4258C160.929 57.5534 161.535 57.763 162.082 58.0547C162.629 58.3464 163.062 58.7474 163.381 59.2578C163.709 59.7682 163.855 60.4154 163.818 61.1992C163.782 61.8281 163.613 62.3613 163.312 62.7988C163.012 63.2272 162.624 63.5781 162.15 63.8516C161.676 64.125 161.161 64.3392 160.605 64.4941C160.059 64.64 159.521 64.7357 158.992 64.7812L158.09 65.6699ZM157.064 72H151.268L152.99 69.4023L157.146 69.416C157.593 69.4069 158.031 69.3477 158.459 69.2383C158.887 69.1198 159.252 68.9193 159.553 68.6367C159.863 68.3542 160.059 67.9622 160.141 67.4609C160.204 67.0143 160.15 66.6634 159.977 66.4082C159.803 66.153 159.548 65.9707 159.211 65.8613C158.883 65.752 158.532 65.6927 158.158 65.6836L154.303 65.6699L154.74 63.3457L158.951 63.3594L159.676 64.2617C160.314 64.3438 160.911 64.5169 161.467 64.7812C162.023 65.0456 162.469 65.4193 162.807 65.9023C163.144 66.3763 163.303 66.9688 163.285 67.6797C163.249 68.5182 163.044 69.2201 162.67 69.7852C162.296 70.3411 161.804 70.7832 161.193 71.1113C160.592 71.4303 159.931 71.6628 159.211 71.8086C158.491 71.9453 157.775 72.0091 157.064 72ZM174.414 57.207L171.844 72H168.617L171.188 57.207H174.414ZM179.117 57.207L178.666 59.8047H166.102L166.553 57.207H179.117ZM178.83 64.8496L178.871 64.5352C178.98 63.5143 179.231 62.5436 179.623 61.623C180.015 60.7025 180.535 59.8867 181.182 59.1758C181.838 58.4557 182.608 57.8952 183.492 57.4941C184.385 57.0931 185.379 56.9062 186.473 56.9336C187.53 56.9518 188.437 57.1706 189.193 57.5898C189.959 58.0091 190.579 58.5697 191.053 59.2715C191.536 59.9642 191.873 60.7572 192.064 61.6504C192.256 62.5345 192.306 63.4596 192.215 64.4258L192.188 64.7402C192.069 65.7611 191.809 66.7272 191.408 67.6387C191.016 68.5501 190.492 69.3613 189.836 70.0723C189.189 70.7741 188.419 71.3255 187.525 71.7266C186.641 72.1185 185.657 72.3008 184.572 72.2734C183.524 72.2552 182.617 72.041 181.852 71.6309C181.095 71.2116 180.475 70.6556 179.992 69.9629C179.518 69.2702 179.186 68.4863 178.994 67.6113C178.803 66.7272 178.748 65.8066 178.83 64.8496ZM182.07 64.5352L182.043 64.8496C181.997 65.3509 181.993 65.8796 182.029 66.4355C182.066 66.9915 182.175 67.5111 182.357 67.9941C182.54 68.4772 182.822 68.8737 183.205 69.1836C183.588 69.4935 184.098 69.6576 184.736 69.6758C185.411 69.694 185.999 69.5573 186.5 69.2656C187.001 68.974 187.421 68.582 187.758 68.0898C188.095 67.5977 188.364 67.0599 188.564 66.4766C188.765 65.8841 188.897 65.3053 188.961 64.7402L188.988 64.4258C189.043 63.9336 189.052 63.4095 189.016 62.8535C188.979 62.2884 188.87 61.7598 188.688 61.2676C188.505 60.7663 188.223 60.3607 187.84 60.0508C187.457 59.7318 186.947 59.5632 186.309 59.5449C185.625 59.5267 185.033 59.668 184.531 59.9688C184.03 60.2604 183.611 60.6569 183.273 61.1582C182.936 61.6595 182.667 62.2064 182.467 62.7988C182.275 63.3913 182.143 63.9701 182.07 64.5352ZM208.02 64.9316L215.102 52.0938H218.93L209.441 68.4043C209.122 68.9785 208.781 69.5072 208.416 69.9902C208.051 70.4642 207.646 70.8789 207.199 71.2344C206.762 71.5898 206.265 71.8587 205.709 72.041C205.162 72.2324 204.538 72.3281 203.836 72.3281C203.59 72.3281 203.339 72.319 203.084 72.3008C202.838 72.2826 202.592 72.2598 202.346 72.2324L202.646 69.5117C202.811 69.5391 202.984 69.5618 203.166 69.5801C203.348 69.5983 203.531 69.6074 203.713 69.6074C204.187 69.6074 204.592 69.5208 204.93 69.3477C205.276 69.1745 205.577 68.9375 205.832 68.6367C206.087 68.3268 206.32 67.9759 206.529 67.584L208.02 64.9316ZM206.516 52.0938L209.496 63.2637L209.824 66.6953L207.322 66.8047L203.029 52.0938H206.516ZM227.857 53.9531L231.645 53.9805C232.766 54.0078 233.764 54.2357 234.639 54.6641C235.523 55.0924 236.261 55.6712 236.854 56.4004C237.446 57.1296 237.874 57.9772 238.139 58.9434C238.403 59.9004 238.476 60.9212 238.357 62.0059C238.239 63.1999 237.92 64.2982 237.4 65.3008C236.89 66.3034 236.22 67.1693 235.391 67.8984C234.57 68.6276 233.636 69.1973 232.588 69.6074C231.54 70.0085 230.419 70.209 229.225 70.209L225.438 70.1816C224.307 70.1634 223.3 69.9492 222.416 69.5391C221.541 69.1198 220.807 68.5501 220.215 67.8301C219.622 67.1009 219.194 66.2624 218.93 65.3145C218.665 64.3665 218.592 63.3457 218.711 62.252C218.829 61.0488 219.144 59.946 219.654 58.9434C220.174 57.9316 220.844 57.0521 221.664 56.3047C222.484 55.5573 223.419 54.9785 224.467 54.5684C225.524 54.1582 226.654 53.9531 227.857 53.9531ZM227.748 56.6875C226.645 56.6784 225.674 56.9199 224.836 57.4121C224.007 57.8952 223.337 58.556 222.826 59.3945C222.325 60.2331 222.006 61.1901 221.869 62.2656C221.787 62.931 221.792 63.569 221.883 64.1797C221.974 64.7904 222.165 65.3372 222.457 65.8203C222.749 66.3034 223.145 66.6908 223.646 66.9824C224.157 67.2741 224.781 67.4336 225.52 67.4609L229.348 67.4883C230.441 67.4883 231.398 67.2513 232.219 66.7773C233.048 66.3034 233.718 65.6517 234.229 64.8223C234.739 63.9928 235.058 63.054 235.186 62.0059C235.277 61.3314 235.277 60.6842 235.186 60.0645C235.104 59.4447 234.917 58.8887 234.625 58.3965C234.342 57.9043 233.951 57.5078 233.449 57.207C232.957 56.9062 232.333 56.7422 231.576 56.7148L227.748 56.6875ZM232.027 51.2734L228.295 72.8203H225.068L228.801 51.2734H232.027ZM250.047 54.9238L241.365 72H237.729L248.447 52.0938H250.785L250.047 54.9238ZM251.934 72L249.117 54.5547L249.322 52.0938H251.496L255.338 72H251.934ZM252.904 64.6172L252.426 67.3379H241.898L242.377 64.6172H252.904ZM268.312 66.9824L275.531 57.207H278.854L276.283 72H273.057L274.766 62.2246L267.533 72H264.225L266.795 57.207H270.008L268.312 66.9824ZM295.684 64.5898L290.461 64.5762L290.939 61.8555L295.793 61.8691C296.549 61.8691 297.242 61.7415 297.871 61.4863C298.509 61.222 299.033 60.8301 299.443 60.3105C299.863 59.791 300.122 59.1302 300.223 58.3281C300.323 57.6536 300.273 57.0612 300.072 56.5508C299.872 56.0312 299.544 55.6257 299.088 55.334C298.632 55.0332 298.058 54.8691 297.365 54.8418L293.195 54.8281L290.215 72H286.852L290.311 52.0938L297.461 52.1074C298.691 52.1348 299.79 52.3991 300.756 52.9004C301.722 53.3926 302.46 54.0944 302.971 55.0059C303.49 55.9173 303.695 57.0156 303.586 58.3008C303.467 59.7318 303.03 60.9167 302.273 61.8555C301.526 62.7852 300.574 63.4733 299.416 63.9199C298.258 64.3665 297.014 64.5898 295.684 64.5898ZM319.91 52.0938L319.432 54.8281H310.463L307.482 72H304.146L307.592 52.0938H319.91ZM308.576 59.7363L313.238 59.75C314.432 59.7773 315.512 60.0189 316.479 60.4746C317.445 60.9303 318.192 61.5957 318.721 62.4707C319.258 63.3457 319.473 64.4212 319.363 65.6973C319.281 66.7454 319.012 67.666 318.557 68.459C318.101 69.2428 317.508 69.8991 316.779 70.4277C316.05 70.9564 315.234 71.3529 314.332 71.6172C313.43 71.8815 312.491 72.0091 311.516 72H304.16L307.605 52.0938H310.969L307.975 69.2793L311.611 69.293C312.359 69.293 313.047 69.1517 313.676 68.8691C314.314 68.5866 314.838 68.1764 315.248 67.6387C315.667 67.1009 315.932 66.4447 316.041 65.6699C316.123 65.0046 316.055 64.4395 315.836 63.9746C315.617 63.5007 315.275 63.1406 314.811 62.8945C314.355 62.6393 313.803 62.498 313.156 62.4707L308.098 62.457L308.576 59.7363Z" fill="#EE0D0D"/>
<path fill-rule="evenodd" clip-rule="evenodd" d="M101.381 96.8009L99.2752 103.602L91.6376 104.301L84 105.001L89.9494 109.034C93.2223 111.252 95.8988 113.219 95.8988 113.405C95.8988 113.591 94.9469 116.438 93.7836 119.733C92.6203 123.028 91.8672 125.921 92.1094 126.163C92.3515 126.405 94.9161 124.921 97.8082 122.864C103.457 118.846 102.78 118.75 112.34 124.959L115.483 127L113.39 121.071C112.239 117.809 111.297 114.677 111.297 114.109C111.297 113.541 113.93 111.259 117.149 109.039L123 105.001L115.512 104.301L108.023 103.602L105.755 96.8009L103.486 90L101.381 96.8009Z" fill="#ED2222"/>
<path fill-rule="evenodd" clip-rule="evenodd" d="M141.489 96.8009L139.492 103.602L132.246 104.301L125 105.001L130.644 109.034C133.749 111.252 136.289 113.219 136.289 113.405C136.289 113.591 135.385 116.438 134.282 119.733C133.178 123.028 132.464 125.921 132.694 126.163C132.923 126.405 135.356 124.921 138.1 122.864C143.459 118.846 142.817 118.75 151.887 124.959L154.868 127L152.883 121.071C151.791 117.809 150.897 114.677 150.897 114.109C150.897 113.541 153.395 111.259 156.449 109.039L162 105.001L154.896 104.301L147.791 103.602L145.64 96.8009L143.487 90L141.489 96.8009Z" fill="#ED2222"/>
<path fill-rule="evenodd" clip-rule="evenodd" d="M180.935 96.8009L178.884 103.602L171.442 104.301L164 105.001L169.797 109.034C172.986 111.252 175.594 113.219 175.594 113.405C175.594 113.591 174.666 116.438 173.533 119.733C172.399 123.028 171.665 125.921 171.901 126.163C172.137 126.405 174.636 124.921 177.454 122.864C182.958 118.846 182.299 118.75 191.613 124.959L194.676 127L192.636 121.071C191.515 117.809 190.597 114.677 190.597 114.109C190.597 113.541 193.163 111.259 196.299 109.039L202 105.001L194.704 104.301L187.407 103.602L185.197 96.8009L182.986 90L180.935 96.8009Z" fill="#ED2222"/>
<path fill-rule="evenodd" clip-rule="evenodd" d="M220.489 96.8009L218.492 103.602L211.246 104.301L204 105.001L209.644 109.034C212.749 111.252 215.289 113.219 215.289 113.405C215.289 113.591 214.385 116.438 213.282 119.733C212.178 123.028 211.464 125.921 211.694 126.163C211.923 126.405 214.356 124.921 217.1 122.864C222.459 118.846 221.817 118.75 230.887 124.959L233.868 127L231.883 121.071C230.791 117.809 229.897 114.677 229.897 114.109C229.897 113.541 232.395 111.259 235.449 109.039L241 105.001L233.896 104.301L226.791 103.602L224.64 96.8009L222.487 90L220.489 96.8009Z" fill="#ED2222"/>
<path fill-rule="evenodd" clip-rule="evenodd" d="M260.381 96.8009L258.275 103.602L250.638 104.301L243 105.001L248.949 109.034C252.222 111.252 254.899 113.219 254.899 113.405C254.899 113.591 253.947 116.438 252.784 119.733C251.62 123.028 250.867 125.921 251.109 126.163C251.352 126.405 253.916 124.921 256.808 122.864C262.457 118.846 261.78 118.75 271.34 124.959L274.483 127L272.39 121.071C271.239 117.809 270.297 114.677 270.297 114.109C270.297 113.541 272.93 111.259 276.149 109.039L282 105.001L274.512 104.301L267.023 103.602L264.755 96.8009L262.486 90L260.381 96.8009Z" fill="#ED2222"/>
</svg>
